<?xml version="1.0" standalone="no"?><!DOCTYPE svg PUBLIC "-//W3C//DTD SVG 1.1//EN" "http://www.w3.org/Graphics/SVG/1.1/DTD/svg11.dtd"><svg t="1703506008539" class="icon" viewBox="0 0 1024 1024" version="1.1" xmlns="http://www.w3.org/2000/svg" p-id="5030" width="64" height="64" xmlns:xlink="http://www.w3.org/1999/xlink"><path d="M896 938.666667h-192c-25.6 0-42.666667-17.066667-42.666667-42.666667s17.066667-42.666667 42.666667-42.666667h89.6l-166.4-166.4c-17.066667-17.066667-17.066667-42.666667 0-59.733333s42.666667-17.066667 59.733333 0l166.4 166.4v-89.6c0-25.6 17.066667-42.666667 42.666667-42.666667s42.666667 17.066667 42.666667 42.666667V896c0 4.266667 0 12.8-4.266667 17.066667 0 4.266667-4.266667 8.533333-8.533333 12.8s-8.533333 8.533333-12.8 8.533333c-4.266667 4.266667-12.8 4.266667-17.066667 4.266667zM320 938.666667H128c-4.266667 0-12.8 0-17.066667-4.266667-4.266667 0-8.533333-4.266667-12.8-8.533333s-8.533333-8.533333-8.533333-12.8c-4.266667-4.266667-4.266667-12.8-4.266667-17.066667v-192c0-25.6 17.066667-42.666667 42.666667-42.666667s42.666667 17.066667 42.666667 42.666667v89.6l166.4-166.4c17.066667-17.066667 42.666667-17.066667 59.733333 0s17.066667 42.666667 0 59.733333L230.4 853.333333h89.6c25.6 0 42.666667 17.066667 42.666667 42.666667s-17.066667 42.666667-42.666667 42.666667z m337.066667-529.066667c-12.8 0-21.333333-4.266667-29.866667-12.8-17.066667-17.066667-17.066667-42.666667 0-59.733333L793.6 170.666667h-89.6c-25.6 0-42.666667-17.066667-42.666667-42.666667s17.066667-42.666667 42.666667-42.666667H896c4.266667 0 12.8 0 17.066667 4.266667 4.266667 0 8.533333 4.266667 12.8 8.533333s8.533333 8.533333 8.533333 12.8c4.266667 4.266667 4.266667 12.8 4.266667 17.066667v192c0 25.6-17.066667 42.666667-42.666667 42.666667s-42.666667-17.066667-42.666667-42.666667V230.4l-166.4 166.4c-8.533333 8.533333-21.333333 12.8-29.866666 12.8z m-290.133334 0c-12.8 0-21.333333-4.266667-29.866666-12.8L170.666667 230.4v89.6c0 25.6-17.066667 42.666667-42.666667 42.666667s-42.666667-17.066667-42.666667-42.666667V128c0-4.266667 0-12.8 4.266667-17.066667 0-4.266667 4.266667-8.533333 8.533333-12.8s8.533333-8.533333 12.8-8.533333c4.266667-4.266667 12.8-4.266667 17.066667-4.266667h192c25.6 0 42.666667 17.066667 42.666667 42.666667s-17.066667 42.666667-42.666667 42.666667H230.4l166.4 166.4c17.066667 17.066667 17.066667 42.666667 0 59.733333-8.533333 8.533333-17.066667 12.8-29.866667 12.8z" fill="#FFFFFF" p-id="5031"></path></svg>