<?xml version="1.0" encoding="utf-8"?>
<!-- Generator: Adobe Illustrator 21.0.0, SVG Export Plug-In . SVG Version: 6.00 Build 0)  -->
<svg version="1.1" id="图层_1" xmlns="http://www.w3.org/2000/svg" xmlns:xlink="http://www.w3.org/1999/xlink" x="0px" y="0px"
	 viewBox="0 0 188 512" style="enable-background:new 0 0 188 512;"  width="188px" height="512px"  xml:space="preserve">
<style type="text/css">
	.st0{fill:#083C59;}
	.st1{fill:#1B1717;}
	.st2{fill:#236823;}
	.st3{fill:#826317;}
	.st4{fill:#E50A11;}
	.st5{fill:#464244;}
	.st6{fill:#6E6B6C;}
	.st7{fill:#BA0307;}
	.st8{fill:#E9503F;}
	.st9{fill:url(#SVGID_1_);}
	.st10{fill:url(#SVGID_2_);}
	.st11{fill:url(#SVGID_3_);}
	.st12{fill:url(#SVGID_4_);}
	.st13{fill:url(#SVGID_5_);}
	.st14{fill:#EC7D77;}
	.st15{fill:#D80A17;}
	.st16{fill:#896B3B;}
	.st17{fill:#5B4106;}
	.st18{fill:#3F723F;}
	.st19{fill:#1C3F0E;}
	.st20{fill:#1A4560;}
	.st21{fill:#032B42;}
	.st22{fill:#937231;}
	.st23{fill:url(#SVGID_6_);}
	.st24{fill:#3B7240;}
	.st25{fill:url(#SVGID_7_);}
	.st26{fill:#0C435B;}
	.st27{fill:url(#SVGID_8_);}
</style>
<g>
	<path class="st0" d="M177.8,442.7l-88.4,4.5L10,442.7c-1.9,0-9.1,0.7-9.1-1.3V330.5c0-1.9,1.6-3.5,3.5-3.5h180
		c1.9,0,3.5,1.6,3.5,3.5v110.9C188,443.4,179.7,442.7,177.8,442.7z"/>
	<path class="st1" d="M0.9,441.4c10.2,2,50,9.4,93.5,9.4s83.3-7.3,93.5-9.4v-5.8C127.7,447.7,64.4,448,0.9,437.1V441.4z"/>
	<path class="st2" d="M177.8,331.5L89.4,336L10,331.5c-1.9,0-9.1,0.7-9.1-1.3V219.3c0-1.9,1.6-3.5,3.5-3.5h180
		c1.9,0,3.5,1.6,3.5,3.5v110.9C188,332.2,179.7,331.5,177.8,331.5z"/>
	<path class="st1" d="M0.9,331.4c10.2,1.5,50,7.1,93.5,7.1s83.3-5.6,93.5-7.1V327c-60.3,9.2-123.6,9.5-187.1,1.1V331.4z"/>
	<path class="st3" d="M177.8,221.5L89.4,226L10,221.5c-1.9,0-9.1,0.7-9.1-1.3V109.3c0-1.9,1.6-3.5,3.5-3.5h180
		c1.9,0,3.5,1.6,3.5,3.5v110.9C188,222.2,179.7,221.5,177.8,221.5z"/>
	<path class="st1" d="M0.9,221.4c10.2,1.5,50,7.1,93.5,7.1s83.3-5.6,93.5-7.1v-4.4c-60.3,9.2-123.6,9.5-187.1,1.1V221.4z"/>
	<path class="st4" d="M177.8,110.9l-88.4,3.9L10,110.9c-1.9,0-9.1,0.6-9.1-1.1v-96c0-1.7,1.6-3.1,3.5-3.1h180c1.9,0,3.5,1.4,3.5,3.1
		v96C188,111.5,179.7,110.9,177.8,110.9z"/>
	<ellipse class="st4" cx="94.5" cy="13.7" rx="93.5" ry="13.7"/>
	<path class="st1" d="M0.9,110.2c10.2,1.5,50,7.1,93.5,7.1s83.3-5.6,93.5-7.1v-4.4c-60.3,9.2-123.6,9.5-187.1,1.1V110.2z"/>
	<path class="st5" d="M1,440.9L0.1,490c-0.7,4.8,4.2,8.5,8.7,10.2c12.8,4.6,34.4,11.8,85.7,11.8s68.6-7.2,81.4-11.8
		c4.5-1.6,12.3-5.4,11.6-10.2l0.4-50.2C127.2,450.8,64.9,450.8,1,440.9z"/>
	<path class="st6" d="M15.7,492.9c5.2,2.4,7.6,3.8,17.8,5.8V445c-6.5-0.8-12-0.7-18.5-2.1L15.7,492.9z"/>
	<path class="st1" d="M157.5,497.3c9.8-1.9,13-4,18.4-6l-0.1-51c-6.3,1.1-12.5,2.1-18.8,2.9L157.5,497.3z"/>
	<path class="st1" d="M179.8,499.6c4.2-1.6,8.3-6.2,7.7-11v-2.9c-13,6.5-43.1,17.1-93.7,17.3c-50.6-0.2-80.7-10.8-93.7-17.3v2.9
		c0,5.8,2.9,8.7,7.7,11c11.4,5.5,38.8,12.4,86,12.4S168.1,504.2,179.8,499.6z"/>
	<ellipse class="st7" cx="98.8" cy="59.1" rx="29.8" ry="29.9"/>
	<ellipse class="st8" cx="98.8" cy="59.1" rx="26.8" ry="26.9"/>
	
		<radialGradient id="SVGID_1_" cx="97.8758" cy="59.0923" r="21.3544" gradientTransform="matrix(0.9956 0 0 1 1.3901 0)" gradientUnits="userSpaceOnUse">
		<stop  offset="0" style="stop-color:#FFFFFF"/>
		<stop  offset="1" style="stop-color:#FFFFFF;stop-opacity:0"/>
	</radialGradient>
	<ellipse class="st9" cx="98.8" cy="59.1" rx="21.3" ry="21.4"/>
	<g>
		
			<radialGradient id="SVGID_2_" cx="117.436" cy="-91.4908" r="30.8324" gradientTransform="matrix(0.9956 0 0 4.324120e-02 1.3901 52.1226)" gradientUnits="userSpaceOnUse">
			<stop  offset="0" style="stop-color:#FFFFFF"/>
			<stop  offset="1" style="stop-color:#FFFFFF;stop-opacity:0"/>
		</radialGradient>
		<ellipse class="st10" cx="118.3" cy="48.2" rx="31.1" ry="1.5"/>
		
			<radialGradient id="SVGID_3_" cx="1213.6797" cy="-1319.1637" r="30.8324" gradientTransform="matrix(0 0.8653 -4.975612e-02 0 52.6753 -1001.978)" gradientUnits="userSpaceOnUse">
			<stop  offset="0" style="stop-color:#FFFFFF"/>
			<stop  offset="1" style="stop-color:#FFFFFF;stop-opacity:0"/>
		</radialGradient>
		<ellipse class="st11" cx="118.3" cy="48.2" rx="1.8" ry="27.1"/>
	</g>
	<g>
		
			<radialGradient id="SVGID_4_" cx="112.0466" cy="37.9844" r="22.7036" gradientTransform="matrix(0.9956 0 0 4.997500e-02 1.3901 36.0861)" gradientUnits="userSpaceOnUse">
			<stop  offset="0" style="stop-color:#FFFFFF"/>
			<stop  offset="1" style="stop-color:#FFFFFF;stop-opacity:0"/>
		</radialGradient>
		<ellipse class="st12" cx="112.9" cy="38" rx="22.9" ry="1.3"/>
		
			<radialGradient id="SVGID_5_" cx="1343.1549" cy="-1313.7742" r="22.7036" gradientTransform="matrix(0 1 -4.975612e-02 0 47.5776 -1305.1705)" gradientUnits="userSpaceOnUse">
			<stop  offset="0" style="stop-color:#FFFFFF"/>
			<stop  offset="1" style="stop-color:#FFFFFF;stop-opacity:0"/>
		</radialGradient>
		<ellipse class="st13" cx="112.9" cy="38" rx="1.3" ry="23"/>
	</g>
	<path class="st8" d="M10.2,14.7h170.7C180.9,14.7,89.3-4.9,10.2,14.7z"/>
	<path class="st14" d="M33.8,104l-18.1-1.3V29.1c0-4.5,4.3-8.2,9.5-8.2h8L33.8,104z"/>
	<path class="st15" d="M174.4,102.8l-17,1.3l-0.5-83.1h9.1c4.6,0,8.4,3.3,8.4,7.3V102.8z"/>
	<polygon class="st16" points="33.8,214.7 15.7,213.2 15.7,118.6 33.8,120.5 	"/>
	<polygon class="st17" points="174.4,213.2 157.4,214.7 157.4,120.5 174.4,118.6 	"/>
	<polygon class="st18" points="33.8,325.8 15.7,324.4 15.7,229.8 33.8,231.7 	"/>
	<polygon class="st19" points="174.4,324.4 157.4,325.8 157.4,231.7 174.4,229.8 	"/>
	<polygon class="st20" points="33.8,437 15.7,435.5 15.7,340.9 33.8,342.9 	"/>
	<polygon class="st21" points="174.4,435.5 157.4,437 157.4,342.9 174.4,340.9 	"/>
	<ellipse class="st17" cx="99.1" cy="169" rx="28.8" ry="28.9"/>
	<ellipse class="st22" cx="99.1" cy="169" rx="25.9" ry="26"/>
	
		<radialGradient id="SVGID_6_" cx="98.4121" cy="168.8313" r="20.6218" gradientTransform="matrix(0.9956 -7.329269e-04 7.353140e-04 1 0.9944 0.2904)" gradientUnits="userSpaceOnUse">
		<stop  offset="0" style="stop-color:#FFFFFF"/>
		<stop  offset="0" style="stop-color:#FDFCFB;stop-opacity:0.9987"/>
		<stop  offset="0" style="stop-color:#F6F4EF;stop-opacity:0.9974"/>
		<stop  offset="0" style="stop-color:#EBE6DA;stop-opacity:0.9961"/>
		<stop  offset="0" style="stop-color:#DCD3BE;stop-opacity:0.9947"/>
		<stop  offset="0" style="stop-color:#C8BA99;stop-opacity:0.9934"/>
		<stop  offset="0" style="stop-color:#B09C6C;stop-opacity:0.9921"/>
		<stop  offset="0" style="stop-color:#947938;stop-opacity:0.9907"/>
		<stop  offset="0" style="stop-color:#826317;stop-opacity:0.99"/>
		<stop  offset="0.141" style="stop-color:#84651C;stop-opacity:0.8504"/>
		<stop  offset="0.304" style="stop-color:#886D2A;stop-opacity:0.689"/>
		<stop  offset="0.4779" style="stop-color:#8F7941;stop-opacity:0.5168"/>
		<stop  offset="0.6595" style="stop-color:#998961;stop-opacity:0.3371"/>
		<stop  offset="0.8451" style="stop-color:#A69E8B;stop-opacity:0.1533"/>
		<stop  offset="1" style="stop-color:#B3B3B3;stop-opacity:0"/>
	</radialGradient>
	<ellipse class="st23" cx="99.1" cy="169" rx="20.5" ry="20.6"/>
	<ellipse class="st19" cx="99.2" cy="278.5" rx="29.1" ry="29.2"/>
	<ellipse class="st24" cx="99.2" cy="278.5" rx="26.2" ry="26.3"/>
	
		<radialGradient id="SVGID_7_" cx="97.6143" cy="278.4778" r="21.4314" gradientTransform="matrix(0.9956 0 0 1 1.3901 0)" gradientUnits="userSpaceOnUse">
		<stop  offset="0" style="stop-color:#236823;stop-opacity:0.99"/>
		<stop  offset="0.1179" style="stop-color:#286B28;stop-opacity:0.8733"/>
		<stop  offset="0.2523" style="stop-color:#357535;stop-opacity:0.7403"/>
		<stop  offset="0.3948" style="stop-color:#4C844C;stop-opacity:0.5992"/>
		<stop  offset="0.543" style="stop-color:#6C9A6C;stop-opacity:0.4525"/>
		<stop  offset="0.6956" style="stop-color:#96B796;stop-opacity:0.3014"/>
		<stop  offset="0.8494" style="stop-color:#C7D9C7;stop-opacity:0.1491"/>
		<stop  offset="1" style="stop-color:#FFFFFF;stop-opacity:0"/>
	</radialGradient>
	<ellipse class="st25" cx="98.6" cy="278.5" rx="21.3" ry="21.4"/>
	<ellipse class="st21" cx="98.7" cy="389.5" rx="28.1" ry="28.2"/>
	<ellipse class="st26" cx="98.7" cy="389.5" rx="25.3" ry="25.4"/>
	
		<radialGradient id="SVGID_8_" cx="97.7011" cy="389.4949" r="20.1391" gradientTransform="matrix(0.9956 0 0 1 1.3901 0)" gradientUnits="userSpaceOnUse">
		<stop  offset="0" style="stop-color:#083C59"/>
		<stop  offset="0.1724" style="stop-color:#0C3E5A;stop-opacity:0.8276"/>
		<stop  offset="0.3578" style="stop-color:#19465F;stop-opacity:0.6422"/>
		<stop  offset="0.5491" style="stop-color:#2F5266;stop-opacity:0.4509"/>
		<stop  offset="0.7446" style="stop-color:#4D636F;stop-opacity:0.2554"/>
		<stop  offset="0.9415" style="stop-color:#73797C;stop-opacity:5.854267e-02"/>
		<stop  offset="1" style="stop-color:#808080;stop-opacity:0"/>
	</radialGradient>
	<ellipse class="st27" cx="98.7" cy="389.5" rx="20.1" ry="20.1"/>
</g>
</svg>
