<?xml version="1.0" standalone="no"?><!DOCTYPE svg PUBLIC "-//W3C//DTD SVG 1.1//EN" "http://www.w3.org/Graphics/SVG/1.1/DTD/svg11.dtd"><svg t="1700667832453" class="icon" viewBox="0 0 1024 1024" version="1.1" xmlns="http://www.w3.org/2000/svg" p-id="3358" xmlns:xlink="http://www.w3.org/1999/xlink" width="36" height="36"><path d="M832 64a128 128 0 0 1 128 128v640a128 128 0 0 1-128 128H192a128 128 0 0 1-128-128V192a128 128 0 0 1 128-128z m0 64H192a64 64 0 0 0-64 64v640a64 64 0 0 0 64 64h640a64 64 0 0 0 64-64V192a64 64 0 0 0-64-64zM318.72 365.824c44.16 0 77.568 12.288 100.608 37.248 21.504 23.04 32.256 56.448 32.256 99.84 0 43.008-11.136 76.416-33.024 100.224-23.04 24.576-56.448 36.864-100.608 36.864H218.88V365.824z m217.728 0V640h-41.472V365.824h41.472z m74.88 0l77.952 227.328h1.152L768 365.824h45.312L715.008 640h-50.688L566.016 365.824h45.312z m-300.288 35.712h-50.304v202.752h49.536c34.56 0 60.288-8.448 76.416-24.96 15.744-16.512 23.808-41.856 23.808-76.416 0-35.328-8.064-60.672-23.424-76.8-16.128-16.512-41.472-24.576-76.032-24.576z" fill="#FFFFFF" p-id="3359"></path></svg>