<?xml version="1.0" encoding="UTF-8"?>
<svg width="47px" height="47px" viewBox="0 0 47 47" version="1.1" xmlns="http://www.w3.org/2000/svg" xmlns:xlink="http://www.w3.org/1999/xlink">
    <!-- Generator: Sketch 63 (92445) - https://sketch.com -->
    <title>102</title>
    <desc>Created with Sketch.</desc>
    <g id="页面1" stroke="none" stroke-width="1" fill="none" fill-rule="evenodd">
        <g id="电力_1" transform="translate(-387.000000, -2123.000000)">
            <g id="编组" transform="translate(11.000000, 18.000000)">
                <g id="102" transform="translate(376.000000, 2119.000000)">
                    <polygon id="矩形" fill="#333333" points="0 13 10 13 9.96407908 14 0 14"></polygon>
                    <rect id="矩形" stroke="#333333" x="10.5" y="10" width="20" height="7"></rect>
                    <circle id="椭圆形" stroke="#333333" fill="#B3B3B3" cx="20.5" cy="13.5" r="7.5"></circle>
                    <g id="62">
                        <polygon id="矩形" fill="#333333" points="0.5 2 13.5 2 13.4684348 3 0.5 3"></polygon>
                        <path d="M18,2.5 C18,1.11928813 16.8807119,0 15.5,0 C14.1192881,0 13,1.11928813 13,2.5" id="路径" stroke="#333333"></path>
                        <path d="M23,2.5 C23,1.11928813 21.8807119,0 20.5,0 C19.1192881,0 18,1.11928813 18,2.5" id="路径备份-2" stroke="#333333"></path>
                        <path d="M28,2.5 C28,1.11928813 26.8807119,0 25.5,0 C24.1192881,0 23,1.11928813 23,2.5" id="路径备份-3" stroke="#333333"></path>
                        <path d="M34,2.5 C34,1.11928813 32.6568542,0 31,0 C29.3431458,0 28,1.11928813 28,2.5" id="路径备份-3" stroke="#333333"></path>
                        <polygon id="矩形备份-20" fill="#333333" points="33.5 2 46.5 2 46.5 3 33.5 3"></polygon>
                    </g>
                    <path d="M43.4632275,12.0100939 C44.8078507,12.0100939 45.9288928,12.905657 46.0046072,14.0665447 L46.0086821,14.1919121 L45.2814093,14.1919121 C45.2814093,13.4047479 44.4805519,12.7373666 43.4632275,12.7373666 C42.4882917,12.7373666 41.7121596,13.3502914 41.6491746,14.09418 L41.6450457,14.1919121 L40.917773,14.1919121 C40.917773,13.3885888 40.2665508,12.7373666 39.4632275,12.7373666 C38.6964189,12.7373666 38.0681983,13.3307323 38.0126717,14.0833577 L38.0086821,14.1919121 L37.2814093,14.1919121 C37.2814093,13.3885888 36.6301872,12.7373666 35.8268639,12.7373666 C35.0600553,12.7373666 34.4318347,13.3307323 34.3763081,14.0833577 L34.3723184,14.1919121 L33.6450457,14.1919121 C33.6450457,13.3885888 32.9938235,12.7373666 32.1905003,12.7373666 C31.4236917,12.7373666 30.7954711,13.3307323 30.7399444,14.0833577 L30.7359548,14.1919121 L30.0086821,14.1919121 C30.0086821,12.9869272 30.9855153,12.0100939 32.1905003,12.0100939 C32.9501045,12.0100939 33.6190447,12.3982729 34.0097719,12.9870819 C34.3982135,12.3983343 35.0671995,12.0100939 35.8268639,12.0100939 C36.5864681,12.0100939 37.2554083,12.3982729 37.6461356,12.9870819 C38.0345771,12.3983343 38.7035631,12.0100939 39.4632275,12.0100939 C40.2404371,12.0100939 40.9227312,12.416475 41.3092161,13.0283432 C41.7605298,12.4127493 42.5616164,12.0100939 43.4632275,12.0100939 Z" id="形状结合" fill="#333333" fill-rule="nonzero"></path>
                </g>
            </g>
        </g>
    </g>
</svg>