<?xml version="1.0" encoding="UTF-8"?>
<svg width="34px" height="34px" viewBox="0 0 34 34" version="1.1" xmlns="http://www.w3.org/2000/svg" xmlns:xlink="http://www.w3.org/1999/xlink">
    <!-- Generator: Sketch 63 (92445) - https://sketch.com -->
    <title>112</title>
    <desc>Created with Sketch.</desc>
    <g id="页面1" stroke="none" stroke-width="1" fill="none" fill-rule="evenodd">
        <g id="电力_1" transform="translate(-401.000000, -2365.000000)" fill="#333333">
            <g id="编组" transform="translate(11.000000, 18.000000)">
                <g id="112" transform="translate(390.000000, 2357.000000)">
                    <rect id="矩形备份" transform="translate(14.500000, 6.557269) rotate(-90.000000) translate(-14.500000, -6.557269) " x="8" y="6.05726887" width="13" height="1"></rect>
                    <rect id="矩形" transform="translate(7.000000, 6.557269) rotate(-360.000000) translate(-7.000000, -6.557269) " x="0" y="6.05726887" width="14" height="1"></rect>
                    <rect id="矩形备份-4" transform="translate(27.000000, 6.557269) rotate(-360.000000) translate(-27.000000, -6.557269) " x="20" y="6.05726887" width="14" height="1"></rect>
                    <path d="M20.6528233,12.208 C21.1688233,11.428 21.5768233,10.6 21.8888233,9.736 C22.2368233,8.704 22.4168233,7.66 22.4168233,6.616 C22.4168233,5.548 22.2368233,4.504 21.8888233,3.472 C21.5768233,2.596 21.1688233,1.768 20.6528233,1 L19.8128233,1 C20.2928233,1.792 20.6648233,2.62 20.9528233,3.484 C21.3008233,4.54 21.4808233,5.572 21.4808233,6.604 C21.4808233,7.624 21.3008233,8.668 20.9528233,9.724 C20.6648233,10.576 20.2928233,11.404 19.8128233,12.208 L20.6528233,12.208 Z" id="）" fill-rule="nonzero" transform="translate(21.114823, 6.604000) rotate(-180.000000) translate(-21.114823, -6.604000) "></path>
                </g>
            </g>
        </g>
    </g>
</svg>