<?xml version="1.0" encoding="UTF-8"?>
<svg width="34px" height="34px" viewBox="0 0 34 34" version="1.1" xmlns="http://www.w3.org/2000/svg" xmlns:xlink="http://www.w3.org/1999/xlink">
    <!-- Generator: Sketch 63 (92445) - https://sketch.com -->
    <title>114</title>
    <desc>Created with Sketch.</desc>
    <g id="页面1" stroke="none" stroke-width="1" fill="none" fill-rule="evenodd">
        <g id="电力_1" transform="translate(-132.000000, -2455.000000)" fill="#333333">
            <g id="编组" transform="translate(11.000000, 18.000000)">
                <g id="114" transform="translate(121.000000, 2447.500000)">
                    <rect id="矩形备份" transform="translate(19.916823, 6.557269) rotate(-270.000000) translate(-19.916823, -6.557269) " x="13.4168233" y="6.05726887" width="13" height="1"></rect>
                    <rect id="矩形" transform="translate(7.000000, 6.500000) rotate(-360.000000) translate(-7.000000, -6.500000) " x="0" y="6" width="14" height="1"></rect>
                    <rect id="矩形备份-4" transform="translate(27.000000, 6.500000) rotate(-360.000000) translate(-27.000000, -6.500000) " x="20" y="6" width="14" height="1"></rect>
                    <path d="M12.84,12.1145377 C13.356,11.3345377 13.764,10.5065377 14.076,9.64253775 C14.424,8.61053775 14.604,7.56653775 14.604,6.52253775 C14.604,5.45453775 14.424,4.41053775 14.076,3.37853775 C13.764,2.50253775 13.356,1.67453775 12.84,0.906537749 L12,0.906537749 C12.48,1.69853775 12.852,2.52653775 13.14,3.39053775 C13.488,4.44653775 13.668,5.47853775 13.668,6.51053775 C13.668,7.53053775 13.488,8.57453775 13.14,9.63053775 C12.852,10.4825377 12.48,11.3105377 12,12.1145377 L12.84,12.1145377 Z" id="）" fill-rule="nonzero" transform="translate(13.302000, 6.510538) rotate(-360.000000) translate(-13.302000, -6.510538) "></path>
                </g>
            </g>
        </g>
    </g>
</svg>