<?xml version="1.0" encoding="UTF-8"?>
<svg width="34px" height="34px" viewBox="0 0 34 34" version="1.1" xmlns="http://www.w3.org/2000/svg" xmlns:xlink="http://www.w3.org/1999/xlink">
    <!-- Generator: Sketch 63 (92445) - https://sketch.com -->
    <title>116</title>
    <desc>Created with Sketch.</desc>
    <g id="页面1" stroke="none" stroke-width="1" fill="none" fill-rule="evenodd">
        <g id="电力_1" transform="translate(-313.000000, -2455.000000)" fill="#333333">
            <g id="编组" transform="translate(11.000000, 18.000000)">
                <g id="116" transform="translate(302.000000, 2445.000000)">
                    <rect id="矩形备份" transform="translate(14.500000, 8.557269) rotate(-90.000000) translate(-14.500000, -8.557269) " x="8" y="8.05726887" width="13" height="1"></rect>
                    <rect id="矩形" transform="translate(7.000000, 8.557269) rotate(-360.000000) translate(-7.000000, -8.557269) " x="0" y="8.05726887" width="14" height="1"></rect>
                    <rect id="矩形备份-4" transform="translate(27.000000, 8.557269) rotate(-360.000000) translate(-27.000000, -8.557269) " x="20" y="8.05726887" width="14" height="1"></rect>
                    <path d="M20.6528233,14.208 C21.1688233,13.428 21.5768233,12.6 21.8888233,11.736 C22.2368233,10.704 22.4168233,9.66 22.4168233,8.616 C22.4168233,7.548 22.2368233,6.504 21.8888233,5.472 C21.5768233,4.596 21.1688233,3.768 20.6528233,3 L19.8128233,3 C20.2928233,3.792 20.6648233,4.62 20.9528233,5.484 C21.3008233,6.54 21.4808233,7.572 21.4808233,8.604 C21.4808233,9.624 21.3008233,10.668 20.9528233,11.724 C20.6648233,12.576 20.2928233,13.404 19.8128233,14.208 L20.6528233,14.208 Z" id="）" fill-rule="nonzero" transform="translate(21.114823, 8.604000) rotate(-180.000000) translate(-21.114823, -8.604000) "></path>
                    <rect id="矩形" transform="translate(19.508330, 8.933013) rotate(-300.000000) translate(-19.508330, -8.933013) " x="19.0083302" y="-4.0669873" width="1" height="26"></rect>
                    <polygon id="三角形" transform="translate(30.720244, 2.210364) rotate(-308.000000) translate(-30.720244, -2.210364) " points="30.7202444 0.710364386 32.2202444 3.71036439 29.2202444 3.71036439"></polygon>
                </g>
            </g>
        </g>
    </g>
</svg>