<?xml version="1.0" encoding="UTF-8"?>
<svg width="34px" height="34px" viewBox="0 0 34 34" version="1.1" xmlns="http://www.w3.org/2000/svg" xmlns:xlink="http://www.w3.org/1999/xlink">
    <!-- Generator: Sketch 63 (92445) - https://sketch.com -->
    <title>120</title>
    <desc>Created with Sketch.</desc>
    <g id="页面1" stroke="none" stroke-width="1" fill="none" fill-rule="evenodd">
        <g id="电力_1" transform="translate(-227.000000, -2555.000000)" fill="#333333">
            <g id="编组" transform="translate(11.000000, 18.000000)">
                <g id="120" transform="translate(216.000000, 2546.500000)">
                    <rect id="矩形备份" transform="translate(14.500000, 6.557269) rotate(-90.000000) translate(-14.500000, -6.557269) " x="8" y="6.05726887" width="13" height="1"></rect>
                    <rect id="矩形备份" transform="translate(19.500000, 6.557269) rotate(-90.000000) translate(-19.500000, -6.557269) " x="13" y="6.05726887" width="13" height="1"></rect>
                    <rect id="矩形" transform="translate(7.000000, 6.500000) rotate(-360.000000) translate(-7.000000, -6.500000) " x="0" y="6" width="14" height="1"></rect>
                    <rect id="矩形备份-4" transform="translate(27.000000, 6.500000) rotate(-360.000000) translate(-27.000000, -6.500000) " x="20" y="6" width="14" height="1"></rect>
                    <polygon id="+" fill-rule="nonzero" points="9.96 13.952 9.96 12.304 11.6 12.304 11.6 11.552 9.96 11.552 9.96 9.912 9.208 9.912 9.208 11.552 7.56 11.552 7.56 12.304 9.208 12.304 9.208 13.952"></polygon>
                    <polygon id="-" fill-rule="nonzero" points="27.6 12.304 27.6 11.552 23.56 11.552 23.56 12.304"></polygon>
                </g>
            </g>
        </g>
    </g>
</svg>