<?xml version="1.0" encoding="UTF-8"?>
<svg width="33px" height="33px" viewBox="0 0 33 33" version="1.1" xmlns="http://www.w3.org/2000/svg" xmlns:xlink="http://www.w3.org/1999/xlink">
    <!-- Generator: Sketch 63 (92445) - https://sketch.com -->
    <title>1</title>
    <desc>Created with Sketch.</desc>
    <g id="页面1" stroke="none" stroke-width="1" fill="none" fill-rule="evenodd">
        <g id="电力_2" transform="translate(-34.000000, -28.000000)" fill="#333333">
            <g id="编组-2" transform="translate(5.000000, 22.000000)">
                <g id="1" transform="translate(29.000000, 14.000000)">
                    <rect id="矩形备份" transform="translate(13.500000, 8.557269) rotate(-90.000000) translate(-13.500000, -8.557269) " x="7" y="8.05726887" width="13" height="1"></rect>
                    <rect id="矩形备份" transform="translate(19.500000, 8.557269) rotate(-90.000000) translate(-19.500000, -8.557269) " x="13" y="8.05726887" width="13" height="1"></rect>
                    <rect id="矩形" transform="translate(7.000000, 8.500000) rotate(-360.000000) translate(-7.000000, -8.500000) " x="0" y="8" width="14" height="1"></rect>
                    <rect id="矩形备份-4" transform="translate(26.000000, 8.500000) rotate(-360.000000) translate(-26.000000, -8.500000) " x="19" y="8" width="14" height="1"></rect>
                    <rect id="矩形" transform="translate(18.508330, 8.933013) rotate(-300.000000) translate(-18.508330, -8.933013) " x="18.0083302" y="-4.0669873" width="1" height="26"></rect>
                    <polygon id="三角形" transform="translate(29.720244, 2.210364) rotate(-308.000000) translate(-29.720244, -2.210364) " points="29.7202444 0.710364386 31.2202444 3.71036439 28.2202444 3.71036439"></polygon>
                </g>
            </g>
        </g>
    </g>
</svg>