<?xml version="1.0" encoding="UTF-8"?>
<svg width="46px" height="46px" viewBox="0 0 46 46" version="1.1" xmlns="http://www.w3.org/2000/svg" xmlns:xlink="http://www.w3.org/1999/xlink">
    <!-- Generator: Sketch 63 (92445) - https://sketch.com -->
    <title>4</title>
    <desc>Created with Sketch.</desc>
    <g id="页面1" stroke="none" stroke-width="1" fill="none" fill-rule="evenodd">
        <g id="电力_2" transform="translate(-365.000000, -22.000000)" fill="#333333">
            <g id="编组-2" transform="translate(5.000000, 22.000000)">
                <g id="4" transform="translate(360.000000, 16.500000)">
                    <rect id="矩形备份" transform="translate(13.500000, 6.557269) rotate(-90.000000) translate(-13.500000, -6.557269) " x="7" y="6.05726887" width="13" height="1"></rect>
                    <rect id="矩形备份" transform="translate(17.500000, 6.557269) rotate(-90.000000) translate(-17.500000, -6.557269) " x="14.5" y="6.05726887" width="6" height="1"></rect>
                    <rect id="矩形备份" transform="translate(20.500000, 6.557269) rotate(-90.000000) translate(-20.500000, -6.557269) " x="14" y="6.05726887" width="13" height="1"></rect>
                    <rect id="矩形备份" transform="translate(24.500000, 6.557269) rotate(-90.000000) translate(-24.500000, -6.557269) " x="21.5" y="6.05726887" width="6" height="1"></rect>
                    <rect id="矩形备份" transform="translate(28.500000, 6.557269) rotate(-90.000000) translate(-28.500000, -6.557269) " x="22" y="6.05726887" width="13" height="1"></rect>
                    <rect id="矩形备份" transform="translate(32.500000, 6.557269) rotate(-90.000000) translate(-32.500000, -6.557269) " x="29.5" y="6.05726887" width="6" height="1"></rect>
                    <rect id="矩形" transform="translate(7.000000, 6.500000) rotate(-360.000000) translate(-7.000000, -6.500000) " x="0" y="6" width="14" height="1"></rect>
                    <rect id="矩形备份-4" transform="translate(39.000000, 6.500000) rotate(-360.000000) translate(-39.000000, -6.500000) " x="32" y="6" width="14" height="1"></rect>
                </g>
            </g>
        </g>
    </g>
</svg>