<?xml version="1.0" encoding="UTF-8"?>
<svg width="41px" height="41px" viewBox="0 0 41 41" version="1.1" xmlns="http://www.w3.org/2000/svg" xmlns:xlink="http://www.w3.org/1999/xlink">
    <!-- Generator: Sketch 63 (92445) - https://sketch.com -->
    <title>7</title>
    <desc>Created with Sketch.</desc>
    <g id="页面1" stroke="none" stroke-width="1" fill="none" fill-rule="evenodd">
        <g id="电力_2" transform="translate(-236.000000, -125.000000)">
            <g id="编组-2" transform="translate(5.000000, 22.000000)">
                <g id="7" transform="translate(265.000000, 123.500000) rotate(-180.000000) translate(-265.000000, -123.500000) translate(258.000000, 103.000000)">
                    <polygon id="矩形" fill="#333333" transform="translate(11.500000, 5.500000) rotate(-270.000000) translate(-11.500000, -5.500000) " points="6.5 5 16.5 5 16.475719 6 6.5 6"></polygon>
                    <path d="M15.25,13.75 C15.25,12.3692881 14.1307119,11.25 12.75,11.25 C11.3692881,11.25 10.25,12.3692881 10.25,13.75" id="路径" stroke="#333333" transform="translate(12.750000, 12.500000) rotate(-270.000000) translate(-12.750000, -12.500000) "></path>
                    <path d="M15.25,18.75 C15.25,17.3692881 14.1307119,16.25 12.75,16.25 C11.3692881,16.25 10.25,17.3692881 10.25,18.75" id="路径备份-2" stroke="#333333" transform="translate(12.750000, 17.500000) rotate(-270.000000) translate(-12.750000, -17.500000) "></path>
                    <path d="M15.25,23.75 C15.25,22.3692881 14.1307119,21.25 12.75,21.25 C11.3692881,21.25 10.25,22.3692881 10.25,23.75" id="路径备份-3" stroke="#333333" transform="translate(12.750000, 22.500000) rotate(-270.000000) translate(-12.750000, -22.500000) "></path>
                    <path d="M15.75,29.25 C15.75,27.8692881 14.4068542,26.75 12.75,26.75 C11.0931458,26.75 9.75,27.8692881 9.75,29.25" id="路径备份-3" stroke="#333333" transform="translate(12.750000, 28.000000) rotate(-270.000000) translate(-12.750000, -28.000000) "></path>
                    <polygon id="矩形备份-20" fill="#333333" transform="translate(11.500000, 35.500000) rotate(-270.000000) translate(-11.500000, -35.500000) " points="6.5 35 16.5 35 16.5 36 6.5 36"></polygon>
                    <rect id="矩形" fill="#333333" x="0" y="19.5" width="12" height="1"></rect>
                </g>
            </g>
        </g>
    </g>
</svg>