<?xml version="1.0" encoding="UTF-8"?>
<svg width="32px" height="32px" viewBox="0 0 32 32" version="1.1" xmlns="http://www.w3.org/2000/svg" xmlns:xlink="http://www.w3.org/1999/xlink">
    <!-- Generator: Sketch 63 (92445) - https://sketch.com -->
    <title>13</title>
    <desc>Created with Sketch.</desc>
    <g id="页面1" stroke="none" stroke-width="1" fill="none" fill-rule="evenodd">
        <g id="电力_1" transform="translate(-20.000000, -223.000000)">
            <g id="编组" transform="translate(11.000000, 18.000000)">
                <g id="13" transform="translate(10.000000, 207.000000)">
                    <circle id="椭圆形" stroke="#333333" cx="15" cy="8" r="8"></circle>
                    <circle id="椭圆形备份" stroke="#333333" cx="8" cy="20" r="8"></circle>
                    <circle id="椭圆形备份-2" stroke="#333333" cx="22" cy="20" r="8"></circle>
                    <polygon id="Y" fill="#333333" fill-rule="nonzero" points="22.99 25.14 22.99 22.3 25.81 18 24.4 18 22.41 21.21 20.41 18 19 18 21.82 22.3 21.82 25.14"></polygon>
                    <polygon id="Y" fill="#333333" fill-rule="nonzero" points="15.6551826 12.6496082 15.6551826 9.80960819 18.4751826 5.50960819 17.0651826 5.50960819 15.0751826 8.71960819 13.0751826 5.50960819 11.6651826 5.50960819 14.4851826 9.80960819 14.4851826 12.6496082"></polygon>
                    <polygon id="Y" fill="#333333" fill-rule="nonzero" points="7.99 25.14 7.99 22.3 10.81 18 9.4 18 7.41 21.21 5.41 18 4 18 6.82 22.3 6.82 25.14"></polygon>
                </g>
            </g>
        </g>
    </g>
</svg>