<?xml version="1.0" encoding="UTF-8"?>
<svg width="42px" height="42px" viewBox="0 0 42 42" version="1.1" xmlns="http://www.w3.org/2000/svg" xmlns:xlink="http://www.w3.org/1999/xlink">
    <!-- Generator: Sketch 63 (92445) - https://sketch.com -->
    <title>9</title>
    <desc>Created with Sketch.</desc>
    <g id="页面1" stroke="none" stroke-width="1" fill="none" fill-rule="evenodd">
        <g id="电力_2" transform="translate(-29.000000, -236.000000)" fill="#333333">
            <g id="编组-2" transform="translate(5.000000, 22.000000)">
                <g id="9" transform="translate(24.000000, 228.000000)">
                    <polygon id="56" fill-rule="nonzero" points="14.755 7.957 19.4706813 0.957301709 22.441 7.935 26.8865144 1.03467774 30.939 8.176 33.60316 5.45767329 42 5.45767329 42 6.45767329 34.023 6.457 30.7259015 9.82396702 26.832 2.964 22.2608787 10.0639217 19.271 3.042 14.5564374 10.0426983 11.552 2.986 8.90491303 6.45767329 0 6.45767329 0 5.45767329 8.409 5.457 11.79924 1.01359063"></polygon>
                    <rect id="矩形" x="21" y="11" width="1" height="8"></rect>
                    <polygon id="路径-2" fill-rule="nonzero" points="18.7878596 12.6704785 21.4925988 10.3472283 24.3159211 12.6631892 23.6817045 13.4363446 21.507 11.652 19.4394432 13.4290553"></polygon>
                </g>
            </g>
        </g>
    </g>
</svg>