<?xml version="1.0" encoding="UTF-8"?>
<svg width="41px" height="41px" viewBox="0 0 41 41" version="1.1" xmlns="http://www.w3.org/2000/svg" xmlns:xlink="http://www.w3.org/1999/xlink">
    <!-- Generator: Sketch 63 (92445) - https://sketch.com -->
    <title>15</title>
    <desc>Created with Sketch.</desc>
    <g id="页面1" stroke="none" stroke-width="1" fill="none" fill-rule="evenodd">
        <g id="电力_2" transform="translate(-242.000000, -341.000000)" fill="#333333">
            <g id="编组-2" transform="translate(5.000000, 22.000000)">
                <g id="15" transform="translate(237.000000, 331.000000)">
                    <polygon id="矩形" transform="translate(5.500000, 15.500000) rotate(-360.000000) translate(-5.500000, -15.500000) " points="0.5 15 10.5 15 10.475719 16 0.5 16"></polygon>
                    <path d="M12.5,12.5 C14.0976809,12.5 15.4036609,13.74892 15.4949073,15.3237272 L15.5,15.5 L14.5,15.5 C14.5,14.3954305 13.6045695,13.5 12.5,13.5 C11.4456382,13.5 10.5818349,14.3158778 10.5054857,15.3507377 L10.5,15.5 L9.5,15.5 C9.5,13.8431458 10.8431458,12.5 12.5,12.5 Z" id="路径" fill-rule="nonzero" transform="translate(12.500000, 14.000000) rotate(-360.000000) translate(-12.500000, -14.000000) "></path>
                    <path d="M17.5,12.5 C19.0976809,12.5 20.4036609,13.74892 20.4949073,15.3237272 L20.5,15.5 L19.5,15.5 C19.5,14.3954305 18.6045695,13.5 17.5,13.5 C16.4456382,13.5 15.5818349,14.3158778 15.5054857,15.3507377 L15.5,15.5 L14.5,15.5 C14.5,13.8431458 15.8431458,12.5 17.5,12.5 Z" id="路径备份-2" fill-rule="nonzero" transform="translate(17.500000, 14.000000) rotate(-360.000000) translate(-17.500000, -14.000000) "></path>
                    <path d="M22.5,12.5 C24.0976809,12.5 25.4036609,13.74892 25.4949073,15.3237272 L25.5,15.5 L24.5,15.5 C24.5,14.3954305 23.6045695,13.5 22.5,13.5 C21.4456382,13.5 20.5818349,14.3158778 20.5054857,15.3507377 L20.5,15.5 L19.5,15.5 C19.5,13.8431458 20.8431458,12.5 22.5,12.5 Z" id="路径备份-3" fill-rule="nonzero" transform="translate(22.500000, 14.000000) rotate(-360.000000) translate(-22.500000, -14.000000) "></path>
                    <path d="M28,12.5 C29.8488569,12.5 31.3902898,13.7313993 31.4943971,15.3276198 L31.5,15.5 L30.5,15.5 C30.5,14.4176492 29.398821,13.5 28,13.5 C26.6594632,13.5 25.5922817,14.3427716 25.5056772,15.3656184 L25.5,15.5 L24.5,15.5 C24.5,13.8209271 26.0851125,12.5 28,12.5 Z" id="路径备份-3" fill-rule="nonzero" transform="translate(28.000000, 14.000000) rotate(-360.000000) translate(-28.000000, -14.000000) "></path>
                    <polygon id="矩形备份-20" transform="translate(35.500000, 15.500000) rotate(-360.000000) translate(-35.500000, -15.500000) " points="30.5 15 40.5 15 40.5 16 30.5 16"></polygon>
                    <polygon id="矩形" transform="translate(35.500000, 1.000000) rotate(-180.000000) translate(-35.500000, -1.000000) " points="30.5 0.5 40.5 0.5 40.475719 1.5 30.5 1.5"></polygon>
                    <rect id="矩形" x="8" y="6" width="25" height="1"></rect>
                    <rect id="矩形备份-2" x="8" y="9" width="25" height="1"></rect>
                    <path d="M28.5,1 C30.0976809,1 31.4036609,2.24891996 31.4949073,3.82372721 L31.5,4 L30.5,4 C30.5,2.8954305 29.6045695,2 28.5,2 C27.4456382,2 26.5818349,2.81587779 26.5054857,3.85073766 L26.5,4 L25.5,4 C25.5,2.34314575 26.8431458,1 28.5,1 Z" id="路径" fill-rule="nonzero" transform="translate(28.500000, 2.500000) rotate(-180.000000) translate(-28.500000, -2.500000) "></path>
                    <path d="M23.5,1 C25.0976809,1 26.4036609,2.24891996 26.4949073,3.82372721 L26.5,4 L25.5,4 C25.5,2.8954305 24.6045695,2 23.5,2 C22.4456382,2 21.5818349,2.81587779 21.5054857,3.85073766 L21.5,4 L20.5,4 C20.5,2.34314575 21.8431458,1 23.5,1 Z" id="路径备份-2" fill-rule="nonzero" transform="translate(23.500000, 2.500000) rotate(-180.000000) translate(-23.500000, -2.500000) "></path>
                    <path d="M18.5,1 C20.0976809,1 21.4036609,2.24891996 21.4949073,3.82372721 L21.5,4 L20.5,4 C20.5,2.8954305 19.6045695,2 18.5,2 C17.4456382,2 16.5818349,2.81587779 16.5054857,3.85073766 L16.5,4 L15.5,4 C15.5,2.34314575 16.8431458,1 18.5,1 Z" id="路径备份-3" fill-rule="nonzero" transform="translate(18.500000, 2.500000) rotate(-180.000000) translate(-18.500000, -2.500000) "></path>
                    <path d="M13,1 C14.8488569,1 16.3902898,2.2313993 16.4943971,3.82761985 L16.5,4 L15.5,4 C15.5,2.9176492 14.398821,2 13,2 C11.6594632,2 10.5922817,2.84277157 10.5056772,3.86561844 L10.5,4 L9.5,4 C9.5,2.32092705 11.0851125,1 13,1 Z" id="路径备份-3" fill-rule="nonzero" transform="translate(13.000000, 2.500000) rotate(-180.000000) translate(-13.000000, -2.500000) "></path>
                    <polygon id="矩形备份-20" transform="translate(5.500000, 1.000000) rotate(-180.000000) translate(-5.500000, -1.000000) " points="0.5 0.5 10.5 0.5 10.5 1.5 0.5 1.5"></polygon>
                </g>
            </g>
        </g>
    </g>
</svg>