<?xml version="1.0" encoding="UTF-8"?>
<svg width="140px" height="140px" viewBox="0 0 140 140" version="1.1" xmlns="http://www.w3.org/2000/svg" xmlns:xlink="http://www.w3.org/1999/xlink">
    <!-- Generator: Sketch 63 (92445) - https://sketch.com -->
    <title>30</title>
    <desc>Created with Sketch.</desc>
    <g id="页面1" stroke="none" stroke-width="1" fill="none" fill-rule="evenodd">
        <g id="电力_2" transform="translate(-41.000000, -1223.000000)">
            <g id="编组-2" transform="translate(5.000000, 22.000000)">
                <g id="30" transform="translate(78.000000, 1202.000000)">
                    <polygon id="矩形" stroke="#333333" points="10.1803736 62 46.1803736 62 56.1803736 138 28.1803736 127.021359 0.180373624 138"></polygon>
                    <rect id="矩形" fill="#333333" x="7.18037362" y="81" width="42" height="1"></rect>
                    <rect id="矩形备份-17" fill="#333333" x="5.18037362" y="99" width="46" height="1"></rect>
                    <rect id="矩形备份-21" fill="#333333" x="3.18037362" y="117" width="50" height="1"></rect>
                    <polygon id="路径-31" fill="#333333" fill-rule="nonzero" points="45.9533544 61.5545089 46.4073928 62.4454911 8.14157555 81.9454911 7.68753713 81.0545089"></polygon>
                    <polygon id="路径-31" fill="#333333" fill-rule="nonzero" transform="translate(29.313282, 71.750000) scale(1, -1) translate(-29.313282, -71.750000) " points="48.2191717 61.5545089 48.6732101 62.4454911 10.4073928 81.9454911 9.95335442 81.0545089"></polygon>
                    <polygon id="路径-32" fill="#333333" fill-rule="nonzero" points="7.87873991 81.0380027 51.3715764 99.0380027 50.9891708 99.9619973 7.49633435 81.9619973"></polygon>
                    <polygon id="路径-33" fill="#333333" fill-rule="nonzero" points="48.4800785 81.0388057 48.8663418 81.9611943 5.88272144 99.9611943 5.49645816 99.0388057"></polygon>
                    <polygon id="路径-34" fill="#333333" fill-rule="nonzero" points="5.35197307 99.4915629 53.3519731 117.030369 53.0087742 117.969631 5.00877418 100.430826"></polygon>
                    <polygon id="路径-35" fill="#333333" fill-rule="nonzero" points="51.0048119 99.0318354 51.3559353 99.9681646 3.35593534 117.968165 3.0048119 117.031835"></polygon>
                    <polygon id="路径-36" fill="#333333" fill-rule="nonzero" points="3.36074725 117.033668 56.3607472 137.533668 56 138.466332 3 117.966332"></polygon>
                    <polygon id="路径-37" fill="#333333" fill-rule="nonzero" points="53 117.033668 53.3607472 117.966332 0.360747248 138.466332 -6.25277607e-13 137.533668"></polygon>
                    <rect id="矩形" stroke="#333333" fill="#B3B3B3" x="10.1803736" y="5" width="36" height="57"></rect>
                    <rect id="矩形" fill="#333333" x="2.18037362" y="52" width="52" height="1"></rect>
                    <rect id="矩形备份-22" fill="#333333" x="10.1803736" y="42" width="36" height="1"></rect>
                    <rect id="矩形备份-25" fill="#333333" x="2.18037362" y="32" width="52" height="1"></rect>
                    <rect id="矩形备份-26" fill="#333333" x="10.1803736" y="22" width="36" height="1"></rect>
                    <rect id="矩形备份-28" fill="#333333" x="2.18037362" y="12" width="52" height="1"></rect>
                    <polygon id="路径-38" fill="#333333" fill-rule="nonzero" points="45.9567668 4.5527864 46.4039804 5.4472136 12.2163736 22.54 46.1864636 42.5 10.4189196 62.4394267 9.94182769 61.5605733 44.1733736 42.4542401 10.1441713 22.4590841"></polygon>
                    <polygon id="路径-39" fill="#333333" fill-rule="nonzero" points="9.95286741 5.44524254 10.4078798 4.55475746 46.4039804 22.5 12.1132143 42.5 46.1887366 61.1133795 45.7179722 61.9956384 10.0632506 42.5408168 44.3206114 22.5583917"></polygon>
                    <path d="M48.6747452,58.3466199 C52.1244208,56.7345144 54.1803736,54.7049848 54.1803736,52.5 C54.1803736,47.2532949 42.5397771,43 28.1803736,43 C13.8209701,43 2.18037362,47.2532949 2.18037362,52.5 C2.18037362,54.7558821 4.33233615,56.8281153 7.92710619,58.4575854" id="路径" stroke="#333333"></path>
                    <path d="M48.6747452,38.3466199 C52.1244208,36.7345144 54.1803736,34.7049848 54.1803736,32.5 C54.1803736,27.2532949 42.5397771,23 28.1803736,23 C13.8209701,23 2.18037362,27.2532949 2.18037362,32.5 C2.18037362,34.7558821 4.33233615,36.8281153 7.92710619,38.4575854" id="路径备份" stroke="#333333"></path>
                    <polygon id="路径-40" fill="#333333" fill-rule="nonzero" points="3.06936387 12.2710369 6.38544841 18.7086841 5.49645816 19.1666102 2.18037362 12.7289631"></polygon>
                    <polygon id="路径-41" fill="#333333" fill-rule="nonzero" points="53.3098893 12.2443772 54.169324 12.7556228 50.3398083 19.1932699 49.4803736 18.6820244"></polygon>
                    <polygon id="矩形" stroke="#333333" points="0.180373624 -8.52651283e-14 56.1803736 -8.52651283e-14 46.1803736 8.60292681 28.1803736 -8.52651283e-14 9.95286741 8.60292681"></polygon>
                    <polygon id="路径-42" fill="#333333" fill-rule="nonzero" points="1.83833247 11.9063345 10.2597562 4.00818684 28.1793736 8.091 46.5849652 4.45524687 53.4876481 11.9318653 52.7529028 12.6102085 46.2283736 5.544 28.2698245 9.09344329 28.0618153 9.09042991 10.5553736 5.101 2.52241478 12.6357393"></polygon>
                </g>
            </g>
        </g>
    </g>
</svg>