<?xml version="1.0" encoding="UTF-8"?>
<svg width="32px" height="32px" viewBox="0 0 32 32" version="1.1" xmlns="http://www.w3.org/2000/svg" xmlns:xlink="http://www.w3.org/1999/xlink">
    <!-- Generator: Sketch 63 (92445) - https://sketch.com -->
    <title>21</title>
    <desc>Created with Sketch.</desc>
    <g id="页面1" stroke="none" stroke-width="1" fill="none" fill-rule="evenodd">
        <g id="电力_1" transform="translate(-178.000000, -333.000000)">
            <g id="编组" transform="translate(11.000000, 18.000000)">
                <g id="21" transform="translate(168.000000, 322.000000)">
                    <path d="M15,0 C23.2842712,0 30,6.71572875 30,15 L30,15 L0,15 L0.00321775869,14.6861718 C0.170269778,6.54678637 6.82059295,0 15,0 Z" id="形状结合" stroke="#333333"></path>
                    <text id="0" font-family="PingFangSC-Semibold, PingFang SC" font-size="4" font-weight="500" fill="#333333">
                        <tspan x="1.3" y="14">0</tspan>
                    </text>
                    <text id="100" font-family="PingFangSC-Semibold, PingFang SC" font-size="4" font-weight="500" fill="#333333">
                        <tspan x="23.28" y="14">100</tspan>
                    </text>
                    <text id="50" font-family="PingFangSC-Semibold, PingFang SC" font-size="4" font-weight="500" fill="#333333">
                        <tspan x="13.1" y="6">50</tspan>
                    </text>
                    <path d="M25.5621805,4.39795046 C25.7574426,4.59321261 25.7574426,4.9097951 25.5621805,5.10505724 L24.8550737,5.81216402 C24.6598116,6.00742617 24.3432291,6.00742617 24.1479669,5.81216402 C23.9527048,5.61690188 23.9527048,5.30031939 24.1479669,5.10505724 L24.8550737,4.39795046 C25.0503359,4.20268832 25.3669183,4.20268832 25.5621805,4.39795046 Z M5.05608383,4.39795046 L5.76319061,5.10505724 C5.95845276,5.30031939 5.95845276,5.61690188 5.76319061,5.81216402 C5.56792847,6.00742617 5.25134598,6.00742617 5.05608383,5.81216402 L4.34897705,5.10505724 C4.1537149,4.9097951 4.1537149,4.59321261 4.34897705,4.39795046 C4.5442392,4.20268832 4.86082169,4.20268832 5.05608383,4.39795046 Z M14.9555788,0.00455217896 C15.2317211,0.00455217896 15.4555788,0.228409804 15.4555788,0.504552179 L15.4555788,1.50455218 C15.4555788,1.78069455 15.2317211,2.00455218 14.9555788,2.00455218 C14.6794364,2.00455218 14.4555788,1.78069455 14.4555788,1.50455218 L14.4555788,0.504552179 C14.4555788,0.228409804 14.6794364,0.00455217896 14.9555788,0.00455217896 Z" id="形状结合" fill="#333333"></path>
                </g>
            </g>
        </g>
    </g>
</svg>