<?xml version="1.0" encoding="UTF-8"?>
<svg width="35px" height="35px" viewBox="0 0 35 35" version="1.1" xmlns="http://www.w3.org/2000/svg" xmlns:xlink="http://www.w3.org/1999/xlink">
    <!-- Generator: Sketch 63 (92445) - https://sketch.com -->
    <title>28</title>
    <desc>Created with Sketch.</desc>
    <g id="页面1" stroke="none" stroke-width="1" fill="none" fill-rule="evenodd">
        <g id="电力_1" transform="translate(-346.000000, -443.000000)">
            <g id="编组" transform="translate(11.000000, 18.000000)">
                <g id="28" transform="translate(335.000000, 427.500000)">
                    <path d="M5.92307692,4.8565596e-12 L5.92276923,2.769 L8.23076923,2.769 L8.23076923,1.38461538 L9.61538462,1.38461538 L9.61476923,2.769 L10.2307692,2.76923077 L10.2307692,4.15384615 L5.92276923,4.153 L5.92276923,6.923 L10.2307692,6.92307692 L10.2307692,8.30769231 L5.92276923,8.307 L5.92307692,30 L4.53846154,30 L4.53776923,8.307 L0.230769231,8.30769231 L0.230769231,6.92307692 L4.53776923,6.923 L4.53776923,4.153 L0.230769231,4.15384615 L0.230769231,2.76923077 L0.845769231,2.769 L0.846153846,1.38461538 L2.23076923,1.38461538 L2.23076923,2.769 L4.53776923,2.769 L4.53846154,4.8565596e-12 L5.92307692,4.8565596e-12 Z" id="形状结合" fill="#333333"></path>
                    <polyline id="路径-3" stroke="#333333" points="1.07536295 3.46153846 5.09340276 7.18588284 9.41951052 3.46153846"></polyline>
                    <polyline id="路径-3备份" stroke="#333333" points="1.11261493 7.44802028 5.13065474 11.1723647 9.4567625 7.44802028"></polyline>
                    <path d="M8.92307692,2.76923077 C18.3659895,6.46153846 26.7506049,7.53846154 34.0769231,6" id="路径-8" stroke="#333333" stroke-width="0.7"></path>
                    <path d="M1.30769231,2.30769231 C12.0769231,8.57408343 22.8461538,9.3795133 33.6153846,4.7239819" id="路径-8备份" stroke="#333333" stroke-width="0.7"></path>
                </g>
            </g>
        </g>
    </g>
</svg>