<?xml version="1.0" encoding="UTF-8"?>
<svg width="30px" height="30px" viewBox="0 0 30 30" version="1.1" xmlns="http://www.w3.org/2000/svg" xmlns:xlink="http://www.w3.org/1999/xlink">
    <!-- Generator: Sketch 63 (92445) - https://sketch.com -->
    <title>29</title>
    <desc>Created with Sketch.</desc>
    <g id="页面1" stroke="none" stroke-width="1" fill="none" fill-rule="evenodd">
        <g id="电力_1" transform="translate(-16.000000, -565.000000)">
            <g id="编组" transform="translate(11.000000, 18.000000)">
                <g id="29" transform="translate(15.000000, 547.000000)">
                    <path d="M5.69230769,7.10542736e-14 L5.692,2.769 L8,2.769 L8,1.38461538 L9.38461538,1.38461538 L9.384,2.769 L10,2.76923077 L10,4.15384615 L5.692,4.153 L5.692,6.923 L10,6.92307692 L10,8.30769231 L5.692,8.307 L5.69230769,30 L4.30769231,30 L4.307,8.307 L0,8.30769231 L0,6.92307692 L4.307,6.923 L4.307,4.153 L0,4.15384615 L0,2.76923077 L0.615,2.769 L0.615384615,1.38461538 L2,1.38461538 L2,2.769 L4.307,2.769 L4.30769231,7.10542736e-14 L5.69230769,7.10542736e-14 Z" id="形状结合" fill="#333333"></path>
                    <polyline id="路径-3" stroke="#333333" points="0.844593719 3.46153846 4.86263353 7.18588284 9.18874129 3.46153846"></polyline>
                    <polyline id="路径-3备份" stroke="#333333" points="0.881845698 7.44802028 4.89988551 11.1723647 9.22599327 7.44802028"></polyline>
                </g>
            </g>
        </g>
    </g>
</svg>