<?xml version="1.0" encoding="UTF-8"?>
<svg width="35px" height="35px" viewBox="0 0 35 35" version="1.1" xmlns="http://www.w3.org/2000/svg" xmlns:xlink="http://www.w3.org/1999/xlink">
    <!-- Generator: Sketch 63 (92445) - https://sketch.com -->
    <title>3</title>
    <desc>Created with Sketch.</desc>
    <g id="页面1" stroke="none" stroke-width="1" fill="none" fill-rule="evenodd">
        <g id="电力_1" transform="translate(-170.000000, -20.000000)">
            <g id="编组" transform="translate(11.000000, 18.000000)">
                <g id="3" transform="translate(160.000000, 6.000000)">
                    <polygon id="三角形" stroke="#000000" fill="#F0F000" points="16.5 2.83245649e-14 33 26 0 26"></polygon>
                    <path d="M19.9514307,14.7649736 L18.592281,14.7649736 C18.3005913,14.7649736 17.4751716,14.9077153 17.1958943,14.7339427 C17.1400388,14.5353455 17.3200175,14.1753881 17.3696668,14.0016155 C17.5124086,13.4989163 17.6489442,13.0024233 17.7916859,12.4935179 L18.3998899,10.3027423 C18.48057,10.0172588 18.1082002,9.89313559 17.9530462,10.1103513 L13.0377651,16.8564505 C12.9260541,17.0116046 13.0812082,17.2288203 13.2549808,17.2288203 L15.2471591,17.2288203 C15.3836947,17.2288203 15.9112185,17.141934 15.9981048,17.2722634 C16.0787849,17.3777682 15.9236309,17.7066948 15.8926,17.8246119 C15.5202303,19.1154938 15.1602728,20.4063757 14.8003154,21.6972577 C14.7196352,21.9827412 15.092005,22.1068644 15.2471591,21.8896487 L20.156234,15.1435495 C20.2741511,14.9821893 20.1252032,14.7649736 19.9514307,14.7649736 Z" id="路径" fill="#FF0000" fill-rule="nonzero"></path>
                </g>
            </g>
        </g>
    </g>
</svg>