<?xml version="1.0" encoding="UTF-8"?>
<svg width="30px" height="30px" viewBox="0 0 30 30" version="1.1" xmlns="http://www.w3.org/2000/svg" xmlns:xlink="http://www.w3.org/1999/xlink">
    <!-- Generator: Sketch 63 (92445) - https://sketch.com -->
    <title>30</title>
    <desc>Created with Sketch.</desc>
    <g id="页面1" stroke="none" stroke-width="1" fill="none" fill-rule="evenodd">
        <g id="电力_1" transform="translate(-99.000000, -565.000000)" fill="#333333">
            <g id="编组" transform="translate(11.000000, 18.000000)">
                <path d="M108,547 L108,547.612156 L104.687,548.023 L106.957714,549.029414 C107.053586,549.071883 107.120086,549.158104 107.13713,549.257589 L107.141437,549.308295 L107.141437,550.710082 C107.141437,550.879124 107.001526,551.01616 106.828937,551.01616 C106.675525,551.01616 106.547932,550.907884 106.521472,550.765099 L106.516437,550.710082 L106.51625,549.505554 L104.227698,548.492023 C104.210643,550.475147 104.24369,552.462588 104.326839,554.454344 L110.194935,554.933142 C110.367288,554.947201 110.5,555.09118 110.5,555.264105 L110.5,557.706307 C110.5,557.878896 110.360089,558.018807 110.1875,558.018807 C110.014911,558.018807 109.875,557.878896 109.875,557.706307 L109.875,555.569871 L104.378593,555.56927 C104.454598,557.056973 104.55851,558.54708 104.690329,560.03959 L108.320717,560.434336 C108.493842,560.453165 108.625,560.599362 108.625,560.773509 L108.625,563.21571 C108.625,563.388299 108.485089,563.52821 108.3125,563.52821 C108.139911,563.52821 108,563.388299 108,563.21571 L108,561.079275 L104.786648,561.079449 C104.815,561.371959 104.844423,561.66456 104.874917,561.957254 C105.397159,566.97005 106.438853,571.982845 108,576.995641 L98,576.995641 C99.6494791,571.876135 100.729781,566.86334 101.240906,561.957254 L101.327,561.079 L98,561.079275 L98,563.21571 C98,563.388299 97.860089,563.52821 97.6875,563.52821 C97.514911,563.52821 97.375,563.388299 97.375,563.21571 L97.375,560.773509 C97.375,560.599356 97.5061502,560.45315 97.6792793,560.434297 L101.424055,560.026764 C101.550624,558.54816 101.646444,557.062382 101.711513,555.569428 L96.125,555.569871 L96.125,557.706307 C96.125,557.878896 95.985089,558.018807 95.8125,558.018807 C95.639911,558.018807 95.5,557.878896 95.5,557.706307 L95.5,555.264105 C95.5,555.091176 95.6327069,554.947189 95.8050623,554.933113 L101.754579,554.447481 C101.819819,552.482304 101.832035,550.504755 101.791227,548.514834 L99.670625,549.501269 L99.6707086,550.710082 C99.6707086,550.860341 99.5601616,550.985312 99.4143808,551.011228 L99.3582086,551.01616 C99.2047961,551.01616 99.0772033,550.907884 99.0507434,550.765099 L99.0457086,550.710082 L99.0457086,549.308295 C99.0457086,549.207051 99.0966899,549.113552 99.1798406,549.056961 L99.2240097,549.031877 L101.392,548.021 L98,547.612156 L98,547 L108,547 Z M103,554.958027 C102.654822,554.958027 102.375,555.237849 102.375,555.583027 L102.375,555.583027 L102.375,558.005963 C102.375,558.351141 102.654822,558.630963 103,558.630963 C103.345178,558.630963 103.625,558.351141 103.625,558.005963 L103.625,558.005963 L103.625,555.583027 C103.625,555.237849 103.345178,554.958027 103,554.958027 Z M103,550.672936 C102.654822,550.672936 102.375,550.952758 102.375,551.297936 L102.375,551.297936 L102.375,552.496559 C102.375,552.841737 102.654822,553.121559 103,553.121559 C103.345178,553.121559 103.625,552.841737 103.625,552.496559 L103.625,552.496559 L103.625,551.297936 C103.625,550.952758 103.345178,550.672936 103,550.672936 Z M103,574.159319 C104.72589,574.159319 106.125,573.611175 106.125,572.935007 C106.125,572.258838 104.72589,571.710695 103,571.710695 C101.27411,571.710695 99.875,572.258838 99.875,572.935007 C99.875,573.611175 101.27411,574.159319 103,574.159319 Z M103.049846,570.593941 C104.430558,570.593941 105.549846,570.114316 105.549846,569.522668 C105.549846,568.931021 104.430558,568.451396 103.049846,568.451396 C101.669134,568.451396 100.549846,568.931021 100.549846,569.522668 C100.549846,570.114316 101.669134,570.593941 103.049846,570.593941 Z M103.013195,567.547893 C104.048728,567.547893 104.888195,567.136786 104.888195,566.629659 C104.888195,566.122533 104.048728,565.711425 103.013195,565.711425 C101.977661,565.711425 101.138195,566.122533 101.138195,566.629659 C101.138195,567.136786 101.977661,567.547893 103.013195,567.547893 Z M103.030081,564.63892 C103.720437,564.63892 104.280081,564.364848 104.280081,564.026764 C104.280081,563.68868 103.720437,563.414608 103.030081,563.414608 C102.339725,563.414608 101.780081,563.68868 101.780081,564.026764 C101.780081,564.364848 102.339725,564.63892 103.030081,564.63892 Z M99.9895273,576.000145 L106.114527,576.000145 L106.114527,577 L99.9895273,577 L99.9895273,576.000145 Z" id="30"></path>
            </g>
        </g>
    </g>
</svg>