<?xml version="1.0" encoding="UTF-8"?>
<svg width="40px" height="40px" viewBox="0 0 40 40" version="1.1" xmlns="http://www.w3.org/2000/svg" xmlns:xlink="http://www.w3.org/1999/xlink">
    <!-- Generator: Sketch 63 (92445) - https://sketch.com -->
    <title>31</title>
    <desc>Created with Sketch.</desc>
    <g id="页面1" stroke="none" stroke-width="1" fill="none" fill-rule="evenodd">
        <g id="电力_1" transform="translate(-179.000000, -560.000000)" fill="#333333">
            <g id="编组" transform="translate(11.000000, 18.000000)">
                <g id="31" transform="translate(168.000000, 547.000000)">
                    <path d="M12.244898,0 L12.244898,0.612244898 L9,1.023 L11.2238831,2.0297086 C11.3177983,2.07218397 11.3829414,2.15841753 11.3996371,2.2579166 L11.4038566,2.30863043 L11.4038566,3.71062072 C11.4038566,3.87968748 11.2668009,4.01674316 11.0977341,4.01674316 C10.9474526,4.01674316 10.8224637,3.90845225 10.7965437,3.76564661 L10.7916117,3.71062072 L10.7914286,2.50591837 L8.54958151,1.49223976 C8.53287455,3.47565222 8.56524717,5.46338144 8.64669936,7.45542741 L14.3888113,7.93377636 C14.5366093,7.94608565 14.6551696,8.05374357 14.6860277,8.19321401 L14.6938776,8.26530612 L14.6938776,10.7142857 C14.6938776,10.8833525 14.5568219,11.0204082 14.3877551,11.0204082 C14.2186883,11.0204082 14.0816327,10.8833525 14.0816327,10.7142857 L14.081,8.57093878 L8.69739755,8.57051533 C8.77185134,10.0584342 8.87364263,11.5487576 9.00277142,13.0414853 L12.5528906,13.4356017 C12.7013549,13.4520881 12.8188413,13.5620034 12.8493789,13.7028177 C12.8543458,13.7278587 12.8571429,13.7513578 12.8571429,13.7755102 L12.8571429,16.2244898 C12.8571429,16.3935566 12.7200872,16.5306122 12.5510204,16.5306122 C12.3819536,16.5306122 12.244898,16.3935566 12.244898,16.2244898 L12.2447347,14.0811429 L9.09712416,14.0814953 C9.12489827,14.3740471 9.15372085,14.666691 9.18359189,14.9594272 C9.695176,19.9729515 10.7156114,24.9864757 12.244898,30 L2.44897959,30 C4.06479586,24.8797504 5.12305088,19.8662262 5.62374465,14.9594272 L5.707,14.081 L2.44873469,14.0811429 L2.44897959,16.2244898 C2.44897959,16.3935566 2.3119239,16.5306122 2.14285714,16.5306122 C1.97379038,16.5306122 1.83673469,16.3935566 1.83673469,16.2244898 L1.83673469,13.7755102 C1.83673469,13.6012314 1.96777097,13.4548196 2.14098264,13.4355626 L5.8031555,13.0286572 C5.92714203,11.5498386 6.021006,10.0638441 6.08474741,8.57067359 L0.612,8.57093878 L0.612244898,10.7142857 C0.612244898,10.8833525 0.475189209,11.0204082 0.306122449,11.0204082 C0.137055689,11.0204082 1.48235478e-13,10.8833525 1.48325796e-13,10.7142857 L1.48325796e-13,8.26530612 C1.48381448e-13,8.09227367 0.132629732,7.94812472 0.305063795,7.9337468 L6.12696681,7.44756405 C6.19084674,5.48243051 6.20280256,3.5049273 6.16283427,1.51505441 L4.0855102,2.50163265 L4.08559207,3.71062072 C4.08559207,3.86090228 3.97730115,3.98589115 3.83449552,4.01181112 L3.77946962,4.01674316 C3.62918806,4.01674316 3.50419919,3.90845225 3.47827921,3.76564661 L3.47334717,3.71062072 L3.47334717,2.30863043 C3.47334717,2.20737198 3.52328805,2.11385927 3.60474185,2.05726038 L3.64800952,2.03217213 L5.772,1.021 L2.44897959,0.612244898 L2.44897959,0 L12.244898,0 Z M7.34693878,7.95918367 C7.00880526,7.95918367 6.73469388,8.23329505 6.73469388,8.57142857 L6.73469388,8.57142857 L6.73469388,11.0204082 C6.73469388,11.3585417 7.00880526,11.6326531 7.34693878,11.6326531 C7.6850723,11.6326531 7.95918367,11.3585417 7.95918367,11.0204082 L7.95918367,11.0204082 L7.95918367,8.57142857 C7.95918367,8.23329505 7.6850723,7.95918367 7.34693878,7.95918367 Z M7.34693878,3.67346939 C7.00880526,3.67346939 6.73469388,3.94758077 6.73469388,4.28571429 L6.73469388,4.28571429 L6.73469388,5.51020408 C6.73469388,5.8483376 7.00880526,6.12244898 7.34693878,6.12244898 C7.6850723,6.12244898 7.95918367,5.8483376 7.95918367,5.51020408 L7.95918367,5.51020408 L7.95918367,4.28571429 C7.95918367,3.94758077 7.6850723,3.67346939 7.34693878,3.67346939 Z M7.34693878,27.1632653 C9.03760638,27.1632653 10.4081633,26.6150426 10.4081633,25.9387755 C10.4081633,25.2625085 9.03760638,24.7142857 7.34693878,24.7142857 C5.65627117,24.7142857 4.28571429,25.2625085 4.28571429,25.9387755 C4.28571429,26.6150426 5.65627117,27.1632653 7.34693878,27.1632653 Z M7.3957676,23.5973699 C8.74830168,23.5973699 9.84474719,23.117675 9.84474719,22.5259413 C9.84474719,21.9342077 8.74830168,21.4545128 7.3957676,21.4545128 C6.04323352,21.4545128 4.94678801,21.9342077 4.94678801,22.5259413 C4.94678801,23.117675 6.04323352,23.5973699 7.3957676,23.5973699 Z M7.35986405,20.5508792 C8.37426461,20.5508792 9.19659875,20.1397121 9.19659875,19.6325118 C9.19659875,19.1253115 8.37426461,18.7141445 7.35986405,18.7141445 C6.34546349,18.7141445 5.52312936,19.1253115 5.52312936,19.6325118 C5.52312936,20.1397121 6.34546349,20.5508792 7.35986405,20.5508792 Z M7.37640628,17.6414831 C8.05267332,17.6414831 8.60089608,17.3673717 8.60089608,17.0292382 C8.60089608,16.6911047 8.05267332,16.4169933 7.37640628,16.4169933 C6.70013924,16.4169933 6.15191648,16.6911047 6.15191648,17.0292382 C6.15191648,17.3673717 6.70013924,17.6414831 7.37640628,17.6414831 Z M4.38852474,28.9914131 L10.3885247,28.9914131 L10.3885247,29.9914131 L4.38852474,29.9914131 L4.38852474,28.9914131 Z" id="形状结合备份-2"></path>
                    <path d="M11.1360022,3.34001749 L11.2060616,3.35086873 C22.1100865,6.18319657 31.1051496,6.63753445 38.1889113,4.72369254 C38.3755203,4.67327582 38.5676676,4.78368145 38.6180844,4.97029044 C38.6685011,5.15689942 38.5580954,5.34904673 38.3714865,5.39946345 C31.1552525,7.34909579 22.042229,6.88879977 11.0300761,4.0283856 C10.842985,3.97978856 10.7307134,3.78872555 10.7793104,3.60163443 C10.8218328,3.4379297 10.9734307,3.33150864 11.1360022,3.34001749 Z" id="路径-8" fill-rule="nonzero"></path>
                    <path d="M14.1100401,10.600916 C14.1804329,10.4208894 14.3834381,10.3320136 14.5634648,10.4024065 C23.9471269,14.0715464 32.2643088,15.1398083 39.5179252,13.6166135 C39.707099,13.5768887 39.8926579,13.698041 39.9323827,13.8872147 C39.9721075,14.0763885 39.8509552,14.2619474 39.6617814,14.3016722 C32.2627615,15.8554004 23.8107127,14.7698162 14.3085496,11.0543407 C14.1285229,10.9839478 14.0396472,10.7809427 14.1100401,10.600916 Z" id="路径-8备份-3" fill-rule="nonzero"></path>
                    <path d="M3.74977349,3.1304236 C16.5341741,6.45025308 27.8141026,6.68979621 37.5933664,3.85563642 L38.1783215,3.68189844 L38.3820763,4.35158789 C28.5325953,7.34831974 17.1859752,7.23066568 4.34602315,4.00520913 L3.57383405,3.80795243 L3.74977349,3.1304236 Z" id="路径-8备份-2" fill-rule="nonzero"></path>
                    <path d="M0.341075243,10.1458827 C15.0315869,14.0884725 27.8265135,14.8145354 38.7268241,12.3305013 L39.3417994,12.1864673 L39.505532,12.8670491 C28.5550237,15.5014931 15.7178617,14.8914127 0.995014897,11.0432379 L0.159632315,10.8219585 L0.341075243,10.1458827 Z" id="路径-8备份" fill-rule="nonzero"></path>
                    <path d="M12.4739794,15.7508482 C22.650135,19.1712394 31.3214556,20.186324 38.486764,18.8049725 L38.9729741,18.707076 L39.1168303,19.3921347 C31.8866609,20.9104059 23.1646915,19.9921578 12.9497448,16.6462611 L12.2509576,16.4143701 L12.4739794,15.7508482 Z" id="路径-8" fill-rule="nonzero"></path>
                    <path d="M1.87729245,16.3991425 L2.01113761,15.7120578 L4.11839572,16.1150089 C21.4473734,19.3649715 32.9880299,19.9161311 38.691008,17.7902954 L38.9160136,17.7038343 L39.1737908,18.3546422 C33.2382993,20.7056194 21.0624906,20.0916613 2.59084494,16.5372986 L1.87729245,16.3991425 Z" id="路径-8备份" fill-rule="nonzero"></path>
                </g>
            </g>
        </g>
    </g>
</svg>