<?xml version="1.0" encoding="UTF-8"?>
<svg width="39px" height="39px" viewBox="0 0 39 39" version="1.1" xmlns="http://www.w3.org/2000/svg" xmlns:xlink="http://www.w3.org/1999/xlink">
    <!-- Generator: Sketch 63 (92445) - https://sketch.com -->
    <title>32</title>
    <desc>Created with Sketch.</desc>
    <g id="页面1" stroke="none" stroke-width="1" fill="none" fill-rule="evenodd">
        <g id="电力_1" transform="translate(-264.000000, -443.000000)" fill-rule="nonzero">
            <g id="编组" transform="translate(11.000000, 18.000000)">
                <g id="32" transform="translate(253.000000, 429.500000)">
                    <path d="M8.462,5 L8.462,3.008 L10.712,3.008 L10.712,2.582 L8.462,2.582 L8.462,1.142 L10.838,1.142 L10.838,0.716 L7.97,0.716 L7.97,5 L8.462,5 Z M12.5,2.084 C12.602,2.084 12.692,2.048 12.764,1.976 C12.836,1.904 12.872,1.82 12.872,1.718 C12.872,1.61 12.836,1.526 12.764,1.46 C12.692,1.382 12.602,1.346 12.5,1.346 C12.392,1.346 12.308,1.382 12.236,1.46 C12.164,1.526 12.134,1.61 12.134,1.718 C12.134,1.82 12.164,1.904 12.236,1.976 C12.308,2.048 12.392,2.084 12.5,2.084 Z M12.5,4.28 C12.602,4.28 12.692,4.244 12.764,4.172 C12.836,4.1 12.872,4.016 12.872,3.914 C12.872,3.806 12.836,3.722 12.764,3.656 C12.692,3.578 12.602,3.542 12.5,3.542 C12.392,3.542 12.308,3.578 12.236,3.656 C12.164,3.722 12.134,3.806 12.134,3.914 C12.134,4.016 12.164,4.1 12.236,4.172 C12.308,4.244 12.392,4.28 12.5,4.28 Z M1.988,13.084 C2.552,13.084 2.978,12.934 3.272,12.634 C3.554,12.34 3.698,11.914 3.698,11.356 L3.698,8.716 L3.206,8.716 L3.206,11.362 C3.206,11.782 3.11,12.1 2.924,12.316 C2.72,12.538 2.408,12.652 1.988,12.652 C1.562,12.652 1.25,12.538 1.052,12.316 C0.86,12.1 0.77,11.782 0.77,11.362 L0.77,8.716 L0.278,8.716 L0.278,11.356 C0.278,11.914 0.422,12.34 0.71,12.64 C0.998,12.934 1.424,13.084 1.988,13.084 Z M5.414,13.084 C5.702,13.084 5.96,13.018 6.188,12.892 C6.38,12.784 6.542,12.646 6.662,12.478 L6.662,13 L7.112,13 L7.112,11.008 C7.112,10.648 7.016,10.366 6.836,10.162 C6.62,9.928 6.296,9.814 5.852,9.814 C5.48,9.814 5.186,9.886 4.958,10.03 C4.706,10.186 4.544,10.432 4.478,10.756 L4.952,10.792 C5,10.594 5.102,10.444 5.264,10.348 C5.408,10.252 5.594,10.21 5.822,10.21 C6.362,10.21 6.632,10.468 6.632,10.99 L6.632,11.152 L5.888,11.164 C5.42,11.17 5.06,11.26 4.808,11.428 C4.52,11.608 4.382,11.872 4.382,12.226 C4.382,12.478 4.478,12.688 4.67,12.85 C4.856,13.006 5.102,13.084 5.414,13.084 Z M5.516,12.706 C5.324,12.706 5.168,12.658 5.048,12.568 C4.928,12.472 4.874,12.358 4.874,12.214 C4.874,11.764 5.222,11.536 5.918,11.524 L6.632,11.512 L6.632,11.776 C6.632,12.016 6.518,12.232 6.296,12.418 C6.068,12.61 5.81,12.706 5.516,12.706 Z M9.338,13.084 C9.788,13.084 10.142,12.916 10.4,12.592 C10.628,12.292 10.748,11.908 10.748,11.44 C10.748,10.984 10.628,10.612 10.4,10.312 C10.148,9.976 9.8,9.814 9.362,9.814 C8.918,9.814 8.576,10.03 8.336,10.468 L8.336,8.632 L7.856,8.632 L7.856,13 L8.306,13 L8.306,12.49 C8.516,12.886 8.858,13.084 9.338,13.084 Z M9.278,12.688 C8.966,12.688 8.72,12.568 8.552,12.328 C8.396,12.112 8.318,11.83 8.318,11.482 L8.318,11.422 C8.318,11.062 8.402,10.768 8.582,10.546 C8.75,10.318 8.978,10.21 9.26,10.21 C9.596,10.21 9.848,10.33 10.022,10.57 C10.178,10.78 10.256,11.068 10.256,11.44 C10.256,11.812 10.178,12.106 10.034,12.322 C9.866,12.562 9.614,12.688 9.278,12.688 Z M12.5,10.084 C12.602,10.084 12.692,10.048 12.764,9.976 C12.836,9.904 12.872,9.82 12.872,9.718 C12.872,9.61 12.836,9.526 12.764,9.46 C12.692,9.382 12.602,9.346 12.5,9.346 C12.392,9.346 12.308,9.382 12.236,9.46 C12.164,9.526 12.134,9.61 12.134,9.718 C12.134,9.82 12.164,9.904 12.236,9.976 C12.308,10.048 12.392,10.084 12.5,10.084 Z M12.5,12.28 C12.602,12.28 12.692,12.244 12.764,12.172 C12.836,12.1 12.872,12.016 12.872,11.914 C12.872,11.806 12.836,11.722 12.764,11.656 C12.692,11.578 12.602,11.542 12.5,11.542 C12.392,11.542 12.308,11.578 12.236,11.656 C12.164,11.722 12.134,11.806 12.134,11.914 C12.134,12.016 12.164,12.1 12.236,12.172 C12.308,12.244 12.392,12.28 12.5,12.28 Z M2.06,21.084 C2.624,21.084 3.05,20.934 3.344,20.634 C3.626,20.34 3.77,19.914 3.77,19.356 L3.77,16.716 L3.278,16.716 L3.278,19.362 C3.278,19.782 3.182,20.1 2.996,20.316 C2.792,20.538 2.48,20.652 2.06,20.652 C1.634,20.652 1.322,20.538 1.124,20.316 C0.932,20.1 0.842,19.782 0.842,19.362 L0.842,16.716 L0.35,16.716 L0.35,19.356 C0.35,19.914 0.494,20.34 0.782,20.64 C1.07,20.934 1.496,21.084 2.06,21.084 Z M6.056,21.084 C6.506,21.084 6.86,20.916 7.118,20.592 C7.346,20.292 7.466,19.908 7.466,19.44 C7.466,18.984 7.346,18.612 7.118,18.312 C6.866,17.976 6.518,17.814 6.08,17.814 C5.636,17.814 5.294,18.03 5.054,18.468 L5.054,16.632 L4.574,16.632 L4.574,21 L5.024,21 L5.024,20.49 C5.234,20.886 5.576,21.084 6.056,21.084 Z M5.996,20.688 C5.684,20.688 5.438,20.568 5.27,20.328 C5.114,20.112 5.036,19.83 5.036,19.482 L5.036,19.422 C5.036,19.062 5.12,18.768 5.3,18.546 C5.468,18.318 5.696,18.21 5.978,18.21 C6.314,18.21 6.566,18.33 6.74,18.57 C6.896,18.78 6.974,19.068 6.974,19.44 C6.974,19.812 6.896,20.106 6.752,20.322 C6.584,20.562 6.332,20.688 5.996,20.688 Z M9.422,21.084 C9.806,21.084 10.112,20.982 10.346,20.784 C10.586,20.58 10.736,20.274 10.808,19.878 L10.328,19.878 C10.256,20.412 9.95,20.682 9.422,20.682 C9.11,20.682 8.87,20.568 8.708,20.352 C8.54,20.136 8.462,19.836 8.462,19.458 C8.462,19.08 8.546,18.78 8.714,18.558 C8.888,18.33 9.128,18.216 9.428,18.216 C9.674,18.216 9.872,18.27 10.028,18.39 C10.178,18.51 10.274,18.69 10.316,18.93 L10.79,18.93 C10.736,18.552 10.592,18.27 10.352,18.084 C10.118,17.904 9.812,17.814 9.428,17.814 C8.966,17.814 8.6,17.976 8.336,18.306 C8.09,18.606 7.97,18.99 7.97,19.464 C7.97,19.938 8.09,20.322 8.336,20.616 C8.594,20.928 8.954,21.084 9.422,21.084 Z M12.5,18.084 C12.602,18.084 12.692,18.048 12.764,17.976 C12.836,17.904 12.872,17.82 12.872,17.718 C12.872,17.61 12.836,17.526 12.764,17.46 C12.692,17.382 12.602,17.346 12.5,17.346 C12.392,17.346 12.308,17.382 12.236,17.46 C12.164,17.526 12.134,17.61 12.134,17.718 C12.134,17.82 12.164,17.904 12.236,17.976 C12.308,18.048 12.392,18.084 12.5,18.084 Z M12.5,20.28 C12.602,20.28 12.692,20.244 12.764,20.172 C12.836,20.1 12.872,20.016 12.872,19.914 C12.872,19.806 12.836,19.722 12.764,19.656 C12.692,19.578 12.602,19.542 12.5,19.542 C12.392,19.542 12.308,19.578 12.236,19.656 C12.164,19.722 12.134,19.806 12.134,19.914 C12.134,20.016 12.164,20.1 12.236,20.172 C12.308,20.244 12.392,20.28 12.5,20.28 Z M2.222,29.084 C2.786,29.084 3.212,28.934 3.506,28.634 C3.788,28.34 3.932,27.914 3.932,27.356 L3.932,24.716 L3.44,24.716 L3.44,27.362 C3.44,27.782 3.344,28.1 3.158,28.316 C2.954,28.538 2.642,28.652 2.222,28.652 C1.796,28.652 1.484,28.538 1.286,28.316 C1.094,28.1 1.004,27.782 1.004,27.362 L1.004,24.716 L0.512,24.716 L0.512,27.356 C0.512,27.914 0.656,28.34 0.944,28.64 C1.232,28.934 1.658,29.084 2.222,29.084 Z M6.068,29.084 C6.452,29.084 6.758,28.982 6.992,28.784 C7.232,28.58 7.382,28.274 7.454,27.878 L6.974,27.878 C6.902,28.412 6.596,28.682 6.068,28.682 C5.756,28.682 5.516,28.568 5.354,28.352 C5.186,28.136 5.108,27.836 5.108,27.458 C5.108,27.08 5.192,26.78 5.36,26.558 C5.534,26.33 5.774,26.216 6.074,26.216 C6.32,26.216 6.518,26.27 6.674,26.39 C6.824,26.51 6.92,26.69 6.962,26.93 L7.436,26.93 C7.382,26.552 7.238,26.27 6.998,26.084 C6.764,25.904 6.458,25.814 6.074,25.814 C5.612,25.814 5.246,25.976 4.982,26.306 C4.736,26.606 4.616,26.99 4.616,27.464 C4.616,27.938 4.736,28.322 4.982,28.616 C5.24,28.928 5.6,29.084 6.068,29.084 Z M8.93,29.084 C9.218,29.084 9.476,29.018 9.704,28.892 C9.896,28.784 10.058,28.646 10.178,28.478 L10.178,29 L10.628,29 L10.628,27.008 C10.628,26.648 10.532,26.366 10.352,26.162 C10.136,25.928 9.812,25.814 9.368,25.814 C8.996,25.814 8.702,25.886 8.474,26.03 C8.222,26.186 8.06,26.432 7.994,26.756 L8.468,26.792 C8.516,26.594 8.618,26.444 8.78,26.348 C8.924,26.252 9.11,26.21 9.338,26.21 C9.878,26.21 10.148,26.468 10.148,26.99 L10.148,27.152 L9.404,27.164 C8.936,27.17 8.576,27.26 8.324,27.428 C8.036,27.608 7.898,27.872 7.898,28.226 C7.898,28.478 7.994,28.688 8.186,28.85 C8.372,29.006 8.618,29.084 8.93,29.084 Z M9.032,28.706 C8.84,28.706 8.684,28.658 8.564,28.568 C8.444,28.472 8.39,28.358 8.39,28.214 C8.39,27.764 8.738,27.536 9.434,27.524 L10.148,27.512 L10.148,27.776 C10.148,28.016 10.034,28.232 9.812,28.418 C9.584,28.61 9.326,28.706 9.032,28.706 Z M12.5,26.084 C12.602,26.084 12.692,26.048 12.764,25.976 C12.836,25.904 12.872,25.82 12.872,25.718 C12.872,25.61 12.836,25.526 12.764,25.46 C12.692,25.382 12.602,25.346 12.5,25.346 C12.392,25.346 12.308,25.382 12.236,25.46 C12.164,25.526 12.134,25.61 12.134,25.718 C12.134,25.82 12.164,25.904 12.236,25.976 C12.308,26.048 12.392,26.084 12.5,26.084 Z M12.5,28.28 C12.602,28.28 12.692,28.244 12.764,28.172 C12.836,28.1 12.872,28.016 12.872,27.914 C12.872,27.806 12.836,27.722 12.764,27.656 C12.692,27.578 12.602,27.542 12.5,27.542 C12.392,27.542 12.308,27.578 12.236,27.656 C12.164,27.722 12.134,27.806 12.134,27.914 C12.134,28.016 12.164,28.1 12.236,28.172 C12.308,28.244 12.392,28.28 12.5,28.28 Z" id="F：Uab：Ubc：Uca：" fill="#1962AE"></path>
                    <path d="M18.008,5 L18.17,3.992 L19.076,3.992 L18.914,5 L19.316,5 L19.478,3.992 L20.156,3.992 L20.21,3.632 L19.532,3.632 L19.778,2.09 L20.384,2.09 L20.438,1.73 L19.832,1.73 L19.994,0.716 L19.598,0.716 L19.436,1.73 L18.524,1.73 L18.686,0.716 L18.29,0.716 L18.128,1.73 L17.444,1.73 L17.39,2.09 L18.068,2.09 L17.822,3.632 L17.216,3.632 L17.162,3.992 L17.768,3.992 L17.606,5 L18.008,5 Z M19.13,3.632 L18.224,3.632 L18.47,2.09 L19.376,2.09 L19.13,3.632 Z M21.608,5 L21.77,3.992 L22.676,3.992 L22.514,5 L22.916,5 L23.078,3.992 L23.756,3.992 L23.81,3.632 L23.132,3.632 L23.378,2.09 L23.984,2.09 L24.038,1.73 L23.432,1.73 L23.594,0.716 L23.198,0.716 L23.036,1.73 L22.124,1.73 L22.286,0.716 L21.89,0.716 L21.728,1.73 L21.044,1.73 L20.99,2.09 L21.668,2.09 L21.422,3.632 L20.816,3.632 L20.762,3.992 L21.368,3.992 L21.206,5 L21.608,5 Z M22.73,3.632 L21.824,3.632 L22.07,2.09 L22.976,2.09 L22.73,3.632 Z M18.008,13 L18.17,11.992 L19.076,11.992 L18.914,13 L19.316,13 L19.478,11.992 L20.156,11.992 L20.21,11.632 L19.532,11.632 L19.778,10.09 L20.384,10.09 L20.438,9.73 L19.832,9.73 L19.994,8.716 L19.598,8.716 L19.436,9.73 L18.524,9.73 L18.686,8.716 L18.29,8.716 L18.128,9.73 L17.444,9.73 L17.39,10.09 L18.068,10.09 L17.822,11.632 L17.216,11.632 L17.162,11.992 L17.768,11.992 L17.606,13 L18.008,13 Z M19.13,11.632 L18.224,11.632 L18.47,10.09 L19.376,10.09 L19.13,11.632 Z M21.608,13 L21.77,11.992 L22.676,11.992 L22.514,13 L22.916,13 L23.078,11.992 L23.756,11.992 L23.81,11.632 L23.132,11.632 L23.378,10.09 L23.984,10.09 L24.038,9.73 L23.432,9.73 L23.594,8.716 L23.198,8.716 L23.036,9.73 L22.124,9.73 L22.286,8.716 L21.89,8.716 L21.728,9.73 L21.044,9.73 L20.99,10.09 L21.668,10.09 L21.422,11.632 L20.816,11.632 L20.762,11.992 L21.368,11.992 L21.206,13 L21.608,13 Z M22.73,11.632 L21.824,11.632 L22.07,10.09 L22.976,10.09 L22.73,11.632 Z M25.208,13 L25.37,11.992 L26.276,11.992 L26.114,13 L26.516,13 L26.678,11.992 L27.356,11.992 L27.41,11.632 L26.732,11.632 L26.978,10.09 L27.584,10.09 L27.638,9.73 L27.032,9.73 L27.194,8.716 L26.798,8.716 L26.636,9.73 L25.724,9.73 L25.886,8.716 L25.49,8.716 L25.328,9.73 L24.644,9.73 L24.59,10.09 L25.268,10.09 L25.022,11.632 L24.416,11.632 L24.362,11.992 L24.968,11.992 L24.806,13 L25.208,13 Z M26.33,11.632 L25.424,11.632 L25.67,10.09 L26.576,10.09 L26.33,11.632 Z M18.008,21 L18.17,19.992 L19.076,19.992 L18.914,21 L19.316,21 L19.478,19.992 L20.156,19.992 L20.21,19.632 L19.532,19.632 L19.778,18.09 L20.384,18.09 L20.438,17.73 L19.832,17.73 L19.994,16.716 L19.598,16.716 L19.436,17.73 L18.524,17.73 L18.686,16.716 L18.29,16.716 L18.128,17.73 L17.444,17.73 L17.39,18.09 L18.068,18.09 L17.822,19.632 L17.216,19.632 L17.162,19.992 L17.768,19.992 L17.606,21 L18.008,21 Z M19.13,19.632 L18.224,19.632 L18.47,18.09 L19.376,18.09 L19.13,19.632 Z M21.608,21 L21.77,19.992 L22.676,19.992 L22.514,21 L22.916,21 L23.078,19.992 L23.756,19.992 L23.81,19.632 L23.132,19.632 L23.378,18.09 L23.984,18.09 L24.038,17.73 L23.432,17.73 L23.594,16.716 L23.198,16.716 L23.036,17.73 L22.124,17.73 L22.286,16.716 L21.89,16.716 L21.728,17.73 L21.044,17.73 L20.99,18.09 L21.668,18.09 L21.422,19.632 L20.816,19.632 L20.762,19.992 L21.368,19.992 L21.206,21 L21.608,21 Z M22.73,19.632 L21.824,19.632 L22.07,18.09 L22.976,18.09 L22.73,19.632 Z M25.208,21 L25.37,19.992 L26.276,19.992 L26.114,21 L26.516,21 L26.678,19.992 L27.356,19.992 L27.41,19.632 L26.732,19.632 L26.978,18.09 L27.584,18.09 L27.638,17.73 L27.032,17.73 L27.194,16.716 L26.798,16.716 L26.636,17.73 L25.724,17.73 L25.886,16.716 L25.49,16.716 L25.328,17.73 L24.644,17.73 L24.59,18.09 L25.268,18.09 L25.022,19.632 L24.416,19.632 L24.362,19.992 L24.968,19.992 L24.806,21 L25.208,21 Z M26.33,19.632 L25.424,19.632 L25.67,18.09 L26.576,18.09 L26.33,19.632 Z M18.008,29 L18.17,27.992 L19.076,27.992 L18.914,29 L19.316,29 L19.478,27.992 L20.156,27.992 L20.21,27.632 L19.532,27.632 L19.778,26.09 L20.384,26.09 L20.438,25.73 L19.832,25.73 L19.994,24.716 L19.598,24.716 L19.436,25.73 L18.524,25.73 L18.686,24.716 L18.29,24.716 L18.128,25.73 L17.444,25.73 L17.39,26.09 L18.068,26.09 L17.822,27.632 L17.216,27.632 L17.162,27.992 L17.768,27.992 L17.606,29 L18.008,29 Z M19.13,27.632 L18.224,27.632 L18.47,26.09 L19.376,26.09 L19.13,27.632 Z M21.608,29 L21.77,27.992 L22.676,27.992 L22.514,29 L22.916,29 L23.078,27.992 L23.756,27.992 L23.81,27.632 L23.132,27.632 L23.378,26.09 L23.984,26.09 L24.038,25.73 L23.432,25.73 L23.594,24.716 L23.198,24.716 L23.036,25.73 L22.124,25.73 L22.286,24.716 L21.89,24.716 L21.728,25.73 L21.044,25.73 L20.99,26.09 L21.668,26.09 L21.422,27.632 L20.816,27.632 L20.762,27.992 L21.368,27.992 L21.206,29 L21.608,29 Z M22.73,27.632 L21.824,27.632 L22.07,26.09 L22.976,26.09 L22.73,27.632 Z M25.208,29 L25.37,27.992 L26.276,27.992 L26.114,29 L26.516,29 L26.678,27.992 L27.356,27.992 L27.41,27.632 L26.732,27.632 L26.978,26.09 L27.584,26.09 L27.638,25.73 L27.032,25.73 L27.194,24.716 L26.798,24.716 L26.636,25.73 L25.724,25.73 L25.886,24.716 L25.49,24.716 L25.328,25.73 L24.644,25.73 L24.59,26.09 L25.268,26.09 L25.022,27.632 L24.416,27.632 L24.362,27.992 L24.968,27.992 L24.806,29 L25.208,29 Z M26.33,27.632 L25.424,27.632 L25.67,26.09 L26.576,26.09 L26.33,27.632 Z" id="###########" fill="#FF0000"></path>
                    <path d="M31.924,5 L31.924,3.002 L34.402,3.002 L34.402,5 L34.894,5 L34.894,0.716 L34.402,0.716 L34.402,2.576 L31.924,2.576 L31.924,0.716 L31.432,0.716 L31.432,5 L31.924,5 Z M38.914,5 L38.914,4.574 L36.106,4.574 L38.77,1.124 L38.77,0.716 L35.65,0.716 L35.65,1.142 L38.14,1.142 L35.47,4.598 L35.47,5 L38.914,5 Z M31.924,13 L31.924,11.5 L32.59,10.87 L34.48,13 L35.14,13 L32.932,10.552 L34.87,8.716 L34.228,8.716 L31.924,10.942 L31.924,8.716 L31.432,8.716 L31.432,13 L31.924,13 Z M37.36,13 L38.944,8.716 L38.404,8.716 L37.066,12.466 L37.048,12.466 L35.71,8.716 L35.17,8.716 L36.754,13 L37.36,13 Z M31.924,21 L31.924,19.5 L32.59,18.87 L34.48,21 L35.14,21 L32.932,18.552 L34.87,16.716 L34.228,16.716 L31.924,18.942 L31.924,16.716 L31.432,16.716 L31.432,21 L31.924,21 Z M37.36,21 L38.944,16.716 L38.404,16.716 L37.066,20.466 L37.048,20.466 L35.71,16.716 L35.17,16.716 L36.754,21 L37.36,21 Z M31.924,29 L31.924,27.5 L32.59,26.87 L34.48,29 L35.14,29 L32.932,26.552 L34.87,24.716 L34.228,24.716 L31.924,26.942 L31.924,24.716 L31.432,24.716 L31.432,29 L31.924,29 Z M37.36,29 L38.944,24.716 L38.404,24.716 L37.066,28.466 L37.048,28.466 L35.71,24.716 L35.17,24.716 L36.754,29 L37.36,29 Z" id="HZKVKVKV" fill="#1962AE"></path>
                </g>
            </g>
        </g>
    </g>
</svg>