<?xml version="1.0" encoding="UTF-8"?>
<svg width="32px" height="32px" viewBox="0 0 32 32" version="1.1" xmlns="http://www.w3.org/2000/svg" xmlns:xlink="http://www.w3.org/1999/xlink">
    <!-- Generator: Sketch 63 (92445) - https://sketch.com -->
    <title>33</title>
    <desc>Created with Sketch.</desc>
    <g id="页面1" stroke="none" stroke-width="1" fill="none" fill-rule="evenodd">
        <g id="电力_1" transform="translate(-29.000000, -654.000000)">
            <g id="编组" transform="translate(11.000000, 18.000000)">
                <g id="33" transform="translate(19.000000, 637.000000)">
                    <circle id="椭圆形" stroke="#333333" cx="15" cy="15" r="15"></circle>
                    <path d="M21.5,17 C21.7761424,17 22,17.2238576 22,17.5 C22,17.7761424 21.7761424,18 21.5,18 L15.5,18 L15.5,23.5 C15.5,23.7761424 15.2761424,24 15,24 C14.7238576,24 14.5,23.7761424 14.5,23.5 L14.5,18 L8.5,18 C8.22385763,18 8,17.7761424 8,17.5 C8,17.2238576 8.22385763,17 8.5,17 L21.5,17 Z M15,6 C15.2761424,6 15.5,6.22385763 15.5,6.5 L15.5,12 L21.5,12 C21.7761424,12 22,12.2238576 22,12.5 C22,12.7761424 21.7761424,13 21.5,13 L8.5,13 C8.22385763,13 8,12.7761424 8,12.5 C8,12.2238576 8.22385763,12 8.5,12 L14.5,12 L14.5,6.5 C14.5,6.22385763 14.7238576,6 15,6 Z" id="形状结合" fill="#333333"></path>
                </g>
            </g>
        </g>
    </g>
</svg>