<?xml version="1.0" encoding="UTF-8"?>
<svg width="42px" height="42px" viewBox="0 0 42 42" version="1.1" xmlns="http://www.w3.org/2000/svg" xmlns:xlink="http://www.w3.org/1999/xlink">
    <!-- Generator: Sketch 63 (92445) - https://sketch.com -->
    <title>34</title>
    <desc>Created with Sketch.</desc>
    <g id="页面1" stroke="none" stroke-width="1" fill="none" fill-rule="evenodd">
        <g id="电力_1" transform="translate(-112.000000, -649.000000)">
            <g id="编组" transform="translate(11.000000, 18.000000)">
                <g id="34" transform="translate(102.000000, 641.000000)">
                    <circle id="椭圆形" stroke="#333333" cx="20" cy="3" r="3"></circle>
                    <circle id="椭圆形" stroke="#333333" cx="20" cy="19" r="3"></circle>
                    <circle id="椭圆形" stroke="#333333" cx="8" cy="9" r="3"></circle>
                    <circle id="椭圆形" stroke="#333333" cx="3" cy="19" r="3"></circle>
                    <circle id="椭圆形" stroke="#333333" cx="32" cy="9" r="3"></circle>
                    <circle id="椭圆形" stroke="#333333" cx="37" cy="19" r="3"></circle>
                    <path d="M11.7852533,14.1350081 C11.6873922,14.037147 11.5287559,14.037147 11.4308948,14.1350081 L10.1778634,15.3880395 C10.0800022,15.4859006 10.0800022,15.6445369 10.1778634,15.7423981 C10.2757245,15.8402592 10.4343608,15.8402592 10.5322219,15.7423981 L11.3574722,14.9171478 L11.3574722,23.8110031 C11.3574722,23.9494637 11.4696207,24.0616123 11.6080814,24.0616123 C11.746542,24.0616123 11.8586906,23.9494637 11.8586906,23.8110031 L11.8586906,14.9171478 L12.6839408,15.7423981 C12.7328081,15.7912702 12.7969653,15.8158256 12.8611225,15.8158256 C12.9252797,15.8158256 12.989432,15.7913919 13.0383042,15.7423981 C13.1361653,15.6445369 13.1361653,15.4859006 13.0383042,15.3880395 L11.7852533,14.1350081 Z" id="路径" fill="#333333" fill-rule="nonzero" transform="translate(11.608084, 19.061612) rotate(-90.000000) translate(-11.608084, -19.061612) "></path>
                </g>
            </g>
        </g>
    </g>
</svg>