<?xml version="1.0" encoding="UTF-8"?>
<svg width="35px" height="35px" viewBox="0 0 35 35" version="1.1" xmlns="http://www.w3.org/2000/svg" xmlns:xlink="http://www.w3.org/1999/xlink">
    <!-- Generator: Sketch 63 (92445) - https://sketch.com -->
    <title>4</title>
    <desc>Created with Sketch.</desc>
    <g id="页面1" stroke="none" stroke-width="1" fill="none" fill-rule="evenodd">
        <g id="电力_1" transform="translate(-254.000000, -20.000000)">
            <g id="编组" transform="translate(11.000000, 18.000000)">
                <g id="4" transform="translate(244.000000, 6.000000)">
                    <polygon id="三角形" stroke="#000000" fill="#F0F000" points="16.5 2.83245649e-14 33 26 0 26"></polygon>
                    <path d="M16.4849649,18.5440484 C17.0372497,18.5440484 17.4849649,18.9917637 17.4849649,19.5440484 C17.4849649,20.0963332 17.0372497,20.5440484 16.4849649,20.5440484 C15.9326802,20.5440484 15.4849649,20.0963332 15.4849649,19.5440484 C15.4849649,18.9917637 15.9326802,18.5440484 16.4849649,18.5440484 Z M16.4849649,8.5440484 C17.4736019,8.5440484 18.2750505,9.34549702 18.2750505,10.334134 C18.2750505,10.4001795 18.2713954,10.4661743 18.2641019,10.5318159 L17.5838059,16.6544799 C17.5275356,17.1609126 17.0994713,17.5440484 16.5899221,17.5440484 L16.3800077,17.5440484 C15.8704585,17.5440484 15.4423943,17.1609126 15.386124,16.6544799 L14.705828,10.5318159 C14.5966513,9.54922567 15.3046928,8.66417373 16.287283,8.55499704 C16.3529246,8.54770354 16.4189194,8.5440484 16.4849649,8.5440484 Z" id="形状结合" fill="#FF0000"></path>
                </g>
            </g>
        </g>
    </g>
</svg>