<?xml version="1.0" encoding="UTF-8"?>
<svg width="41px" height="41px" viewBox="0 0 41 41" version="1.1" xmlns="http://www.w3.org/2000/svg" xmlns:xlink="http://www.w3.org/1999/xlink">
    <!-- Generator: Sketch 63 (92445) - https://sketch.com -->
    <title>49</title>
    <desc>Created with Sketch.</desc>
    <g id="页面1" stroke="none" stroke-width="1" fill="none" fill-rule="evenodd">
        <g id="电力_1" transform="translate(-122.000000, -960.000000)">
            <g id="编组" transform="translate(11.000000, 18.000000)">
                <g id="49" transform="translate(111.000000, 955.000000)">
                    <circle id="椭圆形" stroke="#333333" fill="#B3B3B3" cx="20.5" cy="7.5" r="7.5"></circle>
                    <polygon id="矩形" fill="#333333" points="0 7 15.43 7 15.3925345 8 0 8"></polygon>
                    <polygon id="矩形备份-20" fill="#333333" points="25.5 7 41 7 41 8 25.5 8"></polygon>
                    <path d="M18.3571429,2.5 C20.487384,2.5 22.2142857,4.22690168 22.2142857,6.35714286 C22.2142857,7.51846242 21.697385,8.59629762 20.8216378,9.3243804 C20.6396306,9.47569845 20.369417,9.45081993 20.218099,9.26881267 C20.0667809,9.08680541 20.0916594,8.81659185 20.2736667,8.6652738 C20.9555696,8.09835021 21.3571429,7.26099436 21.3571429,6.35714286 C21.3571429,4.70028861 20.0139971,3.35714286 18.3571429,3.35714286 C16.7002886,3.35714286 15.3571429,4.70028861 15.3571429,6.35714286 C15.3571429,6.50214375 15.3663344,7.04080551 15.3866174,7.18228418 C15.4202074,7.41658209 15.2575014,7.63374811 15.0232035,7.66733807 C14.7889056,7.70092804 14.5717396,7.5382221 14.5381496,7.30392419 C14.512095,7.12218724 14.499995,6.54287636 14.499995,6.35714286 C14.499995,4.22690168 16.2269017,2.5 18.3571429,2.5 Z" id="路径" fill="#333333" fill-rule="nonzero"></path>
                    <path d="M22.6428571,2.5 C24.7730983,2.5 26.5,4.22690168 26.5,6.35714286 C26.5,6.52647794 26.4890621,6.69457145 26.4673813,6.86068096 C26.4367475,7.09538369 26.2216498,7.26081428 25.9869471,7.23018054 C25.7522444,7.19954679 25.4693663,7.23470273 25.5,7 C25.516883,6.87064973 25.6428571,6.48935842 25.6428571,6.35714286 C25.6428571,4.70028861 24.2997114,3.35714286 22.6428571,3.35714286 C20.9860029,3.35714286 19.6428571,4.70028861 19.6428571,6.35714286 C19.6428571,7.26885225 20.0515043,8.11275378 20.7436007,8.67952169 C20.9267256,8.82948531 20.953608,9.09950686 20.8036444,9.2826317 C20.6536808,9.46575654 20.3836592,9.49263902 20.2005344,9.3426754 C19.3117024,8.61479778 18.7857143,7.52857435 18.7857143,6.35714286 C18.7857143,4.22690168 20.512616,2.5 22.6428571,2.5 Z" id="路径" fill="#333333" fill-rule="nonzero"></path>
                </g>
            </g>
        </g>
    </g>
</svg>