<?xml version="1.0" encoding="UTF-8"?>
<svg width="41px" height="41px" viewBox="0 0 41 41" version="1.1" xmlns="http://www.w3.org/2000/svg" xmlns:xlink="http://www.w3.org/1999/xlink">
    <!-- Generator: Sketch 63 (92445) - https://sketch.com -->
    <title>62</title>
    <desc>Created with Sketch.</desc>
    <g id="页面1" stroke="none" stroke-width="1" fill="none" fill-rule="evenodd">
        <g id="电力_1" transform="translate(-126.000000, -1252.000000)">
            <g id="编组" transform="translate(11.000000, 18.000000)">
                <g id="62" transform="translate(114.000000, 1252.000000)">
                    <polygon id="矩形" fill="#333333" points="0.5 2 11.5 2 11.4732909 3 0.5 3"></polygon>
                    <path d="M16,2.5 C16,1.11928813 14.8807119,0 13.5,0 C12.1192881,0 11,1.11928813 11,2.5" id="路径" stroke="#333333"></path>
                    <path d="M21,2.5 C21,1.11928813 19.8807119,0 18.5,0 C17.1192881,0 16,1.11928813 16,2.5" id="路径备份-2" stroke="#333333"></path>
                    <path d="M26,2.5 C26,1.11928813 24.8807119,0 23.5,0 C22.1192881,0 21,1.11928813 21,2.5" id="路径备份-3" stroke="#333333"></path>
                    <path d="M32,2.5 C32,1.11928813 30.6568542,0 29,0 C27.3431458,0 26,1.11928813 26,2.5" id="路径备份-3" stroke="#333333"></path>
                    <polygon id="矩形备份-20" fill="#333333" points="31.5 2 42.5 2 42.5 3 31.5 3"></polygon>
                </g>
            </g>
        </g>
    </g>
</svg>