<?xml version="1.0" encoding="UTF-8"?>
<svg width="38px" height="38px" viewBox="0 0 38 38" version="1.1" xmlns="http://www.w3.org/2000/svg" xmlns:xlink="http://www.w3.org/1999/xlink">
    <!-- Generator: Sketch 63 (92445) - https://sketch.com -->
    <title>66</title>
    <desc>Created with Sketch.</desc>
    <g id="页面1" stroke="none" stroke-width="1" fill="none" fill-rule="evenodd">
        <g id="电力_1" transform="translate(-37.000000, -1359.000000)">
            <g id="编组" transform="translate(11.000000, 18.000000)">
                <g id="66" transform="translate(25.500000, 1346.500000)">
                    <rect id="矩形备份" fill="#333333" transform="translate(23.278012, 13.221988) rotate(-270.000000) translate(-23.278012, -13.221988) " x="19.2780117" y="12.7219883" width="8" height="1"></rect>
                    <circle id="椭圆形" stroke="#333333" transform="translate(18.778012, 12.721988) rotate(-270.000000) translate(-18.778012, -12.721988) " cx="18.7780117" cy="12.7219883" r="8.5"></circle>
                    <polygon id="三角形" stroke="#333333" fill="#B3B3B3" transform="translate(19.403012, 13.221988) rotate(-270.000000) translate(-19.403012, -13.221988) " points="19.4030117 9.84698834 23.9030117 16.5969883 14.9030117 16.5969883"></polygon>
                    <rect id="矩形" fill="#333333" transform="translate(8.000000, 13.500000) rotate(-180.000000) translate(-8.000000, -13.500000) " x="0.5" y="13" width="15" height="1"></rect>
                    <rect id="矩形备份-23" fill="#333333" transform="translate(31.000000, 13.500000) rotate(-180.000000) translate(-31.000000, -13.500000) " x="23.5" y="13" width="15" height="1"></rect>
                    <polygon id="路径-15" fill="#333333" fill-rule="nonzero" transform="translate(29.384922, 4.562344) scale(-1, 1) translate(-29.384922, -4.562344) " points="26.2643383 0.915145438 33.1934828 7.48380913 32.5055057 8.20954158 25.5763612 1.64087789"></polygon>
                    <polygon id="路径-15备份" fill="#333333" fill-rule="nonzero" transform="translate(30.813439, 8.506320) scale(-1, 1) translate(-30.813439, -8.506320) " points="27.6928556 4.85912211 34.6220002 11.4277858 33.9340231 12.1535183 27.0048786 5.58485456"></polygon>
                </g>
            </g>
        </g>
    </g>
</svg>