<?xml version="1.0" encoding="UTF-8"?>
<svg width="40px" height="40px" viewBox="0 0 40 40" version="1.1" xmlns="http://www.w3.org/2000/svg" xmlns:xlink="http://www.w3.org/1999/xlink">
    <!-- Generator: Sketch 63 (92445) - https://sketch.com -->
    <title>70</title>
    <desc>Created with Sketch.</desc>
    <g id="页面1" stroke="none" stroke-width="1" fill="none" fill-rule="evenodd">
        <g id="电力_1" transform="translate(-387.000000, -1370.000000)">
            <g id="编组" transform="translate(11.000000, 18.000000)">
                <g id="70" transform="translate(378.000000, 1352.000000)">
                    <rect id="矩形" fill="#333333" x="15" y="0" width="1" height="40"></rect>
                    <rect id="矩形" fill="#333333" x="20" y="0" width="1" height="40"></rect>
                    <path d="M34.6368758,0 C29.2774979,0.946442215 22.7610432,4.85806858 27.9581554,11.5056253 C29.1393899,13.0165266 31.6305255,13.3661574 35.4315623,12.5545178 C34.1273987,6.81674718 16.9873486,16.0806067 32.3729615,20 C32.9283701,20.141487 36.1953508,19.8629871 35.9907955,19.5874704 C32.3729615,14.7145902 25.9978849,19.8873861 26.5729612,24.5890654 C26.8138016,26.5581156 27.5407161,27.7146388 29.1497099,28.6026475 C30.6173071,29.4126189 36.1280421,28.2725321 34.6368758,27.5169196 C30.2371722,26.0923965 27.8337209,27.279101 27.4265218,31.0770331 C27.221892,32.9856088 25.7461097,39.6441222 35.4315623,40" id="路径-16" stroke="#333333"></path>
                    <path d="M8.63687579,0 C3.27749794,0.946442215 -3.23895685,4.85806858 1.95815538,11.5056253 C3.13938987,13.0165266 5.63052551,13.3661574 9.4315623,12.5545178 C8.12739869,6.81674718 -9.01265139,16.0806067 6.37296154,20 C6.92837007,20.141487 10.1953508,19.8629871 9.99079546,19.5874704 C6.37296154,14.7145902 -0.00211510868,19.8873861 0.572961217,24.5890654 C0.813801593,26.5581156 1.5407161,27.7146388 3.14970995,28.6026475 C4.61730712,29.4126189 10.1280421,28.2725321 8.63687579,27.5169196 C4.23717222,26.0923965 1.8337209,27.279101 1.42652183,31.0770331 C1.22189199,32.9856088 -0.253890256,39.6441222 9.4315623,40" id="路径-16" stroke="#333333" transform="translate(5.000000, 20.000000) scale(-1, 1) translate(-5.000000, -20.000000) "></path>
                </g>
            </g>
        </g>
    </g>
</svg>