<?xml version="1.0" encoding="UTF-8"?>
<svg width="35px" height="35px" viewBox="0 0 35 35" version="1.1" xmlns="http://www.w3.org/2000/svg" xmlns:xlink="http://www.w3.org/1999/xlink">
    <!-- Generator: Sketch 63 (92445) - https://sketch.com -->
    <title>83</title>
    <desc>Created with Sketch.</desc>
    <g id="页面1" stroke="none" stroke-width="1" fill="none" fill-rule="evenodd">
        <g id="电力_1" transform="translate(-28.000000, -1823.000000)">
            <g id="编组" transform="translate(11.000000, 18.000000)">
                <g id="83" transform="translate(17.000000, 1809.000000)">
                    <rect id="矩形" fill="#333333" x="17" y="2" width="1" height="13"></rect>
                    <rect id="矩形" fill="#333333" x="17" y="15" width="7" height="1"></rect>
                    <rect id="矩形" fill="#333333" transform="translate(23.500000, 17.500000) rotate(-270.000000) translate(-23.500000, -17.500000) " x="21" y="17" width="5" height="1"></rect>
                    <rect id="矩形备份-32" fill="#333333" transform="translate(17.500000, 28.000000) rotate(-270.000000) translate(-17.500000, -28.000000) " x="14.5" y="27.5" width="6" height="1"></rect>
                    <rect id="矩形备份-30" fill="#333333" transform="translate(10.500000, 22.500000) rotate(-270.000000) translate(-10.500000, -22.500000) " x="8" y="22" width="5" height="1"></rect>
                    <rect id="矩形备份-29" fill="#333333" x="10" y="20" width="14" height="1"></rect>
                    <rect id="矩形备份-31" fill="#333333" x="10" y="25" width="8" height="1"></rect>
                    <rect id="矩形" fill="#333333" transform="translate(16.949127, 2.324313) rotate(-7.000000) translate(-16.949127, -2.324313) " x="1.94912695" y="1.82431323" width="30" height="1"></rect>
                    <circle id="椭圆形备份-6" stroke="#333333" cx="2.5" cy="2" r="2"></circle>
                    <circle id="椭圆形备份-7" stroke="#333333" cx="32" cy="2.4" r="2"></circle>
                </g>
            </g>
        </g>
    </g>
</svg>