<?xml version="1.0" encoding="UTF-8"?>
<svg width="35px" height="35px" viewBox="0 0 35 35" version="1.1" xmlns="http://www.w3.org/2000/svg" xmlns:xlink="http://www.w3.org/1999/xlink">
    <!-- Generator: Sketch 63 (92445) - https://sketch.com -->
    <title>84</title>
    <desc>Created with Sketch.</desc>
    <g id="页面1" stroke="none" stroke-width="1" fill="none" fill-rule="evenodd">
        <g id="电力_1" transform="translate(-126.000000, -1823.000000)">
            <g id="编组" transform="translate(11.000000, 18.000000)">
                <g id="84" transform="translate(115.000000, 1805.000000)">
                    <rect id="矩形" fill="#333333" x="17" y="6" width="1" height="13"></rect>
                    <rect id="矩形" fill="#333333" x="17" y="19" width="7" height="1"></rect>
                    <rect id="矩形" fill="#333333" transform="translate(23.500000, 21.500000) rotate(-270.000000) translate(-23.500000, -21.500000) " x="21" y="21" width="5" height="1"></rect>
                    <rect id="矩形备份-32" fill="#333333" transform="translate(17.500000, 32.000000) rotate(-270.000000) translate(-17.500000, -32.000000) " x="14.5" y="31.5" width="6" height="1"></rect>
                    <rect id="矩形备份-30" fill="#333333" transform="translate(10.500000, 26.500000) rotate(-270.000000) translate(-10.500000, -26.500000) " x="8" y="26" width="5" height="1"></rect>
                    <rect id="矩形备份-29" fill="#333333" x="10" y="24" width="14" height="1"></rect>
                    <rect id="矩形备份-31" fill="#333333" x="10" y="29" width="8" height="1"></rect>
                    <rect id="矩形" fill="#333333" transform="translate(16.949127, 6.324313) rotate(7.000000) translate(-16.949127, -6.324313) " x="1.94912695" y="5.82431323" width="30" height="1"></rect>
                    <circle id="椭圆形备份-6" stroke="#333333" cx="2.5" cy="2.5" r="2"></circle>
                    <circle id="椭圆形备份-7" stroke="#333333" cx="32" cy="6.2" r="2"></circle>
                </g>
            </g>
        </g>
    </g>
</svg>