<?xml version="1.0" encoding="UTF-8"?>
<svg width="54px" height="54px" viewBox="0 0 54 54" version="1.1" xmlns="http://www.w3.org/2000/svg" xmlns:xlink="http://www.w3.org/1999/xlink">
    <!-- Generator: Sketch 63 (92445) - https://sketch.com -->
    <title>92</title>
    <desc>Created with Sketch.</desc>
    <g id="页面1" stroke="none" stroke-width="1" fill="none" fill-rule="evenodd">
        <g id="电力_1" transform="translate(-389.000000, -1899.000000)">
            <g id="编组" transform="translate(11.000000, 18.000000)">
                <g id="92" transform="translate(379.000000, 1897.000000)">
                    <circle id="椭圆形" stroke="#333333" cx="3" cy="19" r="3"></circle>
                    <circle id="椭圆形" stroke="#333333" cx="3" cy="3" r="3"></circle>
                    <circle id="椭圆形" stroke="#333333" cx="19" cy="19" r="3"></circle>
                    <circle id="椭圆形" stroke="#333333" cx="19" cy="3" r="3"></circle>
                    <circle id="椭圆形" stroke="#333333" cx="35" cy="19" r="3"></circle>
                    <circle id="椭圆形" stroke="#333333" cx="35" cy="3" r="3"></circle>
                    <polygon id="路径" fill="#333333" fill-rule="nonzero" points="51.7810546 6.10340489 52.3900285 6.89659511 45.7428299 12 9 12 9 11 45.402 11"></polygon>
                    <path d="M7.8,16.784 C8.316,16.004 8.724,15.176 9.036,14.312 C9.384,13.28 9.564,12.236 9.564,11.192 C9.564,10.124 9.384,9.08 9.036,8.048 C8.724,7.172 8.316,6.344 7.8,5.576 L6.96,5.576 C7.44,6.368 7.812,7.196 8.1,8.06 C8.448,9.116 8.628,10.148 8.628,11.18 C8.628,12.2 8.448,13.244 8.1,14.3 C7.812,15.152 7.44,15.98 6.96,16.784 L7.8,16.784 Z" id="）" fill="#333333" fill-rule="nonzero"></path>
                    <path d="M23.84,16.784 C24.356,16.004 24.764,15.176 25.076,14.312 C25.424,13.28 25.604,12.236 25.604,11.192 C25.604,10.124 25.424,9.08 25.076,8.048 C24.764,7.172 24.356,6.344 23.84,5.576 L23,5.576 C23.48,6.368 23.852,7.196 24.14,8.06 C24.488,9.116 24.668,10.148 24.668,11.18 C24.668,12.2 24.488,13.244 24.14,14.3 C23.852,15.152 23.48,15.98 23,16.784 L23.84,16.784 Z" id="）备份" fill="#333333" fill-rule="nonzero"></path>
                    <path d="M39.84,16.784 C40.356,16.004 40.764,15.176 41.076,14.312 C41.424,13.28 41.604,12.236 41.604,11.192 C41.604,10.124 41.424,9.08 41.076,8.048 C40.764,7.172 40.356,6.344 39.84,5.576 L39,5.576 C39.48,6.368 39.852,7.196 40.14,8.06 C40.488,9.116 40.668,10.148 40.668,11.18 C40.668,12.2 40.488,13.244 40.14,14.3 C39.852,15.152 39.48,15.98 39,16.784 L39.84,16.784 Z" id="）备份-2" fill="#333333" fill-rule="nonzero"></path>
                </g>
            </g>
        </g>
    </g>
</svg>