<?xml version="1.0" encoding="UTF-8"?>
<svg width="55px" height="55px" viewBox="0 0 55 55" version="1.1" xmlns="http://www.w3.org/2000/svg" xmlns:xlink="http://www.w3.org/1999/xlink">
    <!-- Generator: Sketch 63 (92445) - https://sketch.com -->
    <title>93</title>
    <desc>Created with Sketch.</desc>
    <g id="页面1" stroke="none" stroke-width="1" fill="none" fill-rule="evenodd">
        <g id="电力_1" transform="translate(-25.000000, -2012.000000)">
            <g id="编组" transform="translate(11.000000, 18.000000)">
                <g id="93" transform="translate(14.000000, 1995.000000)">
                    <circle id="椭圆形" stroke="#333333" cx="5" cy="19" r="3"></circle>
                    <circle id="椭圆形" stroke="#333333" cx="5" cy="3" r="3"></circle>
                    <circle id="椭圆形" stroke="#333333" cx="21" cy="19" r="3"></circle>
                    <circle id="椭圆形" stroke="#333333" cx="21" cy="3" r="3"></circle>
                    <circle id="椭圆形" stroke="#333333" cx="37" cy="19" r="3"></circle>
                    <circle id="椭圆形" stroke="#333333" cx="5" cy="49" r="3"></circle>
                    <circle id="椭圆形" stroke="#333333" cx="21" cy="49" r="3"></circle>
                    <circle id="椭圆形" stroke="#333333" cx="37" cy="49" r="3"></circle>
                    <circle id="椭圆形" stroke="#333333" cx="37" cy="3" r="3"></circle>
                    <polygon id="路径" fill="#333333" fill-rule="nonzero" points="53.7810546 6.10340489 54.3900285 6.89659511 47.7428299 12 11 12 11 11 47.402 11"></polygon>
                    <path d="M5.61666667,22.3333333 L5.61666667,25.3333333 L5.2,25.3333333 C2.89881354,25.3333333 1.03333333,27.1988135 1.03333333,29.5 C1.03333333,31.8011865 2.89881354,33.6666667 5.2,33.6666667 C7.44062892,33.6666667 9.26818176,31.8980777 9.36281707,29.6807414 L9.36666667,29.5 L10.2,29.5 C10.2,32.2614237 7.96142375,34.5 5.2,34.5 C2.43857625,34.5 0.2,32.2614237 0.2,29.5 C0.2,26.8787058 2.21714585,24.7285413 4.78387459,24.5170695 L4.78333333,22.3333333 L5.61666667,22.3333333 Z M21.4166667,22.3333333 L21.4166667,25.3333333 L21,25.3333333 C18.6988135,25.3333333 16.8333333,27.1988135 16.8333333,29.5 C16.8333333,31.8011865 18.6988135,33.6666667 21,33.6666667 C23.2406289,33.6666667 25.0681818,31.8980777 25.1628171,29.6807414 L25.1666667,29.5 L26,29.5 C26,32.2614237 23.7614237,34.5 21,34.5 C18.2385763,34.5 16,32.2614237 16,29.5 C16,26.8787058 18.0171458,24.7285413 20.5838746,24.5170695 L20.5833333,22.3333333 L21.4166667,22.3333333 Z M37.4166667,22.3333333 L37.4166667,25.3333333 L37,25.3333333 C34.6988135,25.3333333 32.8333333,27.1988135 32.8333333,29.5 C32.8333333,31.8011865 34.6988135,33.6666667 37,33.6666667 C39.2406289,33.6666667 41.0681818,31.8980777 41.1628171,29.6807414 L41.1666667,29.5 L42,29.5 C42,32.2614237 39.7614237,34.5 37,34.5 C34.2385763,34.5 32,32.2614237 32,29.5 C32,26.8787058 34.0171458,24.7285413 36.5838746,24.5170695 L36.5833333,22.3333333 L37.4166667,22.3333333 Z" id="形状结合" fill="#333333" fill-rule="nonzero"></path>
                    <path d="M5.61666667,34.3333333 L5.61666667,37.3333333 L5.2,37.3333333 C2.89881354,37.3333333 1.03333333,39.1988135 1.03333333,41.5 C1.03333333,43.8011865 2.89881354,45.6666667 5.2,45.6666667 C7.44062892,45.6666667 9.26818176,43.8980777 9.36281707,41.6807414 L9.36666667,41.5 L10.2,41.5 C10.2,44.2614237 7.96142375,46.5 5.2,46.5 C2.43857625,46.5 0.2,44.2614237 0.2,41.5 C0.2,38.8787058 2.21714585,36.7285413 4.78387459,36.5170695 L4.78333333,34.3333333 L5.61666667,34.3333333 Z M21.4166667,34.3333333 L21.4166667,37.3333333 L21,37.3333333 C18.6988135,37.3333333 16.8333333,39.1988135 16.8333333,41.5 C16.8333333,43.8011865 18.6988135,45.6666667 21,45.6666667 C23.2406289,45.6666667 25.0681818,43.8980777 25.1628171,41.6807414 L25.1666667,41.5 L26,41.5 C26,44.2614237 23.7614237,46.5 21,46.5 C18.2385763,46.5 16,44.2614237 16,41.5 C16,38.8787058 18.0171458,36.7285413 20.5838746,36.5170695 L20.5833333,34.3333333 L21.4166667,34.3333333 Z M37.4166667,34.3333333 L37.4166667,37.3333333 L37,37.3333333 C34.6988135,37.3333333 32.8333333,39.1988135 32.8333333,41.5 C32.8333333,43.8011865 34.6988135,45.6666667 37,45.6666667 C39.2406289,45.6666667 41.0681818,43.8980777 41.1628171,41.6807414 L41.1666667,41.5 L42,41.5 C42,44.2614237 39.7614237,46.5 37,46.5 C34.2385763,46.5 32,44.2614237 32,41.5 C32,38.8787058 34.0171458,36.7285413 36.5838746,36.5170695 L36.5833333,34.3333333 L37.4166667,34.3333333 Z" id="形状结合" fill="#333333" fill-rule="nonzero" transform="translate(21.100000, 40.416667) rotate(-180.000000) translate(-21.100000, -40.416667) "></path>
                </g>
            </g>
        </g>
    </g>
</svg>