<?xml version="1.0" encoding="UTF-8"?>
<svg width="42px" height="42px" viewBox="0 0 42 42" version="1.1" xmlns="http://www.w3.org/2000/svg" xmlns:xlink="http://www.w3.org/1999/xlink">
    <!-- Generator: Sketch 63 (92445) - https://sketch.com -->
    <title>94</title>
    <desc>Created with Sketch.</desc>
    <g id="页面1" stroke="none" stroke-width="1" fill="none" fill-rule="evenodd">
        <g id="电力_1" transform="translate(-124.000000, -2013.000000)">
            <g id="编组" transform="translate(11.000000, 18.000000)">
                <g id="94" transform="translate(113.000000, 2009.000000)">
                    <circle id="椭圆形" stroke="#333333" fill="#B3B3B3" cx="33.5" cy="7.5" r="7.5"></circle>
                    <polygon id="M" fill="#333333" fill-rule="nonzero" points="30.9831933 10 30.9831933 5.86554622 31.0168067 5.86554622 32.7815126 10 33.6302521 10 35.394958 5.86554622 35.4285714 5.86554622 35.4285714 10 36.4117647 10 36.4117647 4 35.2605042 4 33.2268908 8.70588235 33.1932773 8.70588235 31.1512605 4 30 4 30 10"></polygon>
                    <polygon id="矩形" fill="#333333" points="0 7 26 7 26 8 0 8"></polygon>
                    <polygon id="路径-19" fill="#333333" fill-rule="nonzero" points="0 1.5 20.627497 1.5 26.2394261 4.56105221 25.7605739 5.43894779 20.374 2.5 0 2.5"></polygon>
                    <polygon id="路径-19备份" fill="#333333" fill-rule="nonzero" transform="translate(13.119713, 11.469474) scale(1, -1) translate(-13.119713, -11.469474) " points="0 9.5 20.627497 9.5 26.2394261 12.5610522 25.7605739 13.4389478 20.374 10.5 0 10.5"></polygon>
                </g>
            </g>
        </g>
    </g>
</svg>