<?xml version="1.0" standalone="no"?><!DOCTYPE svg PUBLIC "-//W3C//DTD SVG 1.1//EN" "http://www.w3.org/Graphics/SVG/1.1/DTD/svg11.dtd"><svg t="1735522767138" class="icon" viewBox="0 0 1024 1024" version="1.1" xmlns="http://www.w3.org/2000/svg" p-id="1497" xmlns:xlink="http://www.w3.org/1999/xlink" width="280" height="280"><path d="M561.7 956.9V502.1h405.2V233.9H703.5c5.9-11.2 5.9-16.7 5.9-27.8 0-77.9-65-139-147.7-139-82.8 0-147.7 61.1-147.7 139 0 11.1 0 16.7 5.9 27.8H177.6v228c-11.8-5.6-17.7-5.6-29.5-5.6C65.4 456.3 0.4 517.5 0.4 595.3s65 139 147.7 139c11.8 0 17.7-5.6 29.5-5.6v228h384.1z" fill="#333333" p-id="1498"></path><path d="M767.8 701V558.9h113.7V701h142.1v113.7h-142v142.1H767.8v-142H625.7V701h142.1z" fill="#333333" p-id="1499"></path></svg>