<?xml version="1.0" standalone="no"?><!DOCTYPE svg PUBLIC "-//W3C//DTD SVG 1.1//EN" "http://www.w3.org/Graphics/SVG/1.1/DTD/svg11.dtd"><svg t="1702266083808" class="icon" viewBox="0 0 1024 1024" version="1.1" xmlns="http://www.w3.org/2000/svg" p-id="9653" width="128" height="128" xmlns:xlink="http://www.w3.org/1999/xlink"><path d="M454.71999969 402.77333375v238.82666625h-226.13333344v175.68c0 48.85333312 39.57333375 88.32 88.32 88.32h378.6666675c48.85333312 0 88.32-39.57333375 88.32-88.32V402.77333375H454.71999969z" fill="#A3A3A3" p-id="9654"></path><path d="M491.84 366.72000031v238.82666625h-226.13333344v175.68c0 48.85333312 39.57333375 88.32 88.32 88.32h378.66666657c48.85333312 0 88.32-39.57333375 88.31999999-88.32V366.72000031H491.84z" fill="#FFD44D" p-id="9655"></path><path d="M458.66666656 374.61333312H321.92c-17.70666656 0-31.99999969-14.29333313-31.99999969-31.99999968s14.29333313-31.99999969 31.99999969-31.99999969H458.66666656c17.70666656 0 31.99999969 14.29333313 31.99999969 31.99999969s-14.29333313 31.99999969-31.99999969 31.99999969z" fill="#592B0C" p-id="9656"></path><path d="M390.29333375 565.33333344c-17.70666656 0-31.99999969-14.29333313-32.00000063-31.99999969V342.61333344c0-17.70666656 14.29333313-31.99999969 32.00000063-31.99999969s31.99999969 14.29333313 31.99999969 31.99999969V533.33333375c0 17.70666656-14.29333313 31.99999969-31.99999969 31.99999969z" fill="#592B0C" p-id="9657"></path><path d="M564.05333375 807.89333375c-4.26666656 0.10666688-7.57333313 3.52000031-7.57333406 7.78666594 0.10666688 4.26666656 3.52000031 7.57333313 7.78666687 7.57333406 4.26666656-0.10666688 7.57333313-3.52000031 7.57333313-7.78666687-0.10666688-4.37333344-3.52000031-7.68-7.78666594-7.57333313zM487.35999969 809.17333344c-4.26666656 0.10666688-7.57333313 3.52000031-7.57333313 7.78666687 0.10666688 4.26666656 3.52000031 7.57333313 7.78666688 7.57333313 4.26666656-0.10666688 7.57333313-3.52000031 7.57333312-7.78666688-0.10666688-4.26666656-3.52000031-7.68-7.78666687-7.57333312zM410.66666656 810.56c-4.26666656 0.10666688-7.57333313 3.52000031-7.57333312 7.78666687 0.10666688 4.26666656 3.52000031 7.57333313 7.78666687 7.57333313 4.26666656-0.10666688 7.57333313-3.52000031 7.57333313-7.78666687s-3.52000031-7.68-7.78666688-7.57333313zM333.97333344 811.83999969c-4.26666656 0.10666688-7.57333313 3.52000031-7.57333313 7.78666687 0.10666688 4.26666656 3.52000031 7.57333313 7.78666594 7.57333313 4.26666656-0.10666688 7.57333313-3.52000031 7.57333406-7.78666594s-3.52000031-7.68-7.78666687-7.57333406zM523.94666656 708.8c4.26666656-0.10666688 7.57333313-3.52000031 7.57333313-7.78666688-0.10666688-4.26666656-3.52000031-7.57333313-7.78666594-7.57333312-4.26666656 0.10666688-7.57333313 3.62666625-7.57333406 7.78666687 0.10666688 4.26666656 3.52000031 7.68 7.78666687 7.57333313zM561.60000031 669.86666656c4.26666656-0.10666688 7.57333313-3.52000031 7.57333313-7.78666687-0.10666688-4.26666656-3.52000031-7.57333313-7.78666688-7.57333313-4.26666656 0.10666688-7.57333313 3.52000031-7.57333312 7.78666688 0.10666688 4.26666656 3.62666625 7.57333313 7.78666687 7.57333312zM484.90666625 671.14666625c4.26666656-0.10666688 7.57333313-3.52000031 7.57333406-7.78666594-0.10666688-4.26666656-3.52000031-7.57333313-7.78666687-7.57333406-4.26666656 0.10666688-7.57333313 3.52000031-7.57333313 7.78666687 0.10666688 4.26666656 3.62666625 7.68 7.78666594 7.57333313zM562.98666688 746.45333375c4.26666656-0.10666688 7.57333313-3.52000031 7.57333312-7.78666688-0.10666688-4.26666656-3.52000031-7.57333313-7.78666687-7.57333312-4.26666656 0.10666688-7.57333313 3.52000031-7.57333313 7.78666594 0 4.37333344 3.52000031 7.68 7.78666688 7.57333406zM486.29333375 747.84000031c4.26666656-0.10666688 7.57333313-3.52000031 7.57333313-7.78666687-0.10666688-4.26666656-3.52000031-7.57333313-7.78666688-7.57333313-4.26666656 0.10666688-7.57333313 3.52000031-7.57333312 7.78666594 0.10666688 4.26666656 3.52000031 7.68 7.78666687 7.57333406zM525.01333344 770.13333312c-4.26666656 0.10666688-7.57333313 3.52000031-7.57333313 7.78666688 0.10666688 4.26666656 3.52000031 7.57333313 7.78666594 7.57333313 4.26666656-0.10666688 7.57333313-3.52000031 7.57333406-7.78666688s-3.52000031-7.57333313-7.78666687-7.57333312zM607.14666687 770.98666625c-0.85333313-0.85333313-1.92-1.49333344-3.20000062-1.81333312-0.10666688 0-0.21333375 0-0.31999969-0.10666688-0.21333375-0.10666688-0.42666656-0.10666688-0.64000031-0.10666594-0.42666656-0.10666688-0.85333313-0.10666688-1.38666656-0.10666687-2.13333375 0-4.05333375 0.96-5.33333344 2.34666656-1.38666656 1.38666656-2.23999969 3.30666656-2.13333281 5.44000031 0 1.60000031 0.53333344 3.09333375 1.38666656 4.26666657 0.31999969 0.42666656 0.64000031 0.74666625 0.96 1.06666687 0.74666625 0.64000031 1.49333344 1.27999969 2.45333344 1.59999938 0.42666656 0.21333375 0.96 0.31999969 1.49333343 0.42666656 0.53333344 0.10666688 1.06666687 0.10666688 1.59999938 0.10666687 0.31999969 0 0.64000031 0 0.96-0.10666687 2.45333344-0.31999969 4.58666625-1.92 5.76-4.05333281 0.53333344-1.06666687 0.85333313-2.34666656 0.85333406-3.62666719 0-0.42666656 0-0.74666625-0.10666687-1.06666594-0.31999969-1.70666625-1.17333375-3.09333375-2.34666657-4.2666675zM370.56000031 711.46666625c4.26666656-0.10666688 7.57333313-3.52000031 7.57333313-7.78666594-0.10666688-4.26666656-3.52000031-7.57333313-7.78666688-7.57333406-4.26666656 0.10666688-7.57333313 3.62666625-7.57333312 7.78666687 0.10666688 4.26666656 3.62666625 7.68 7.78666687 7.57333313zM408.32 672.53333375c4.26666656-0.10666688 7.57333313-3.52000031 7.57333313-7.78666687-0.10666688-4.26666656-3.52000031-7.57333313-7.78666688-7.57333313-4.26666656 0.10666688-7.57333313 3.52000031-7.57333312 7.78666594s3.52000031 7.57333313 7.78666687 7.57333406zM331.62666687 673.81333344c4.26666656-0.10666688 7.57333313-3.52000031 7.57333313-7.78666688-0.10666688-4.26666656-3.52000031-7.57333313-7.78666688-7.57333312-4.26666656 0.10666688-7.57333313 3.52000031-7.57333312 7.78666687s3.52000031 7.68 7.78666687 7.57333313zM409.59999969 749.22666688c4.26666656-0.10666688 7.57333313-3.52000031 7.57333406-7.78666688-0.10666688-4.26666656-3.52000031-7.57333313-7.78666688-7.57333313-4.26666656 0.10666688-7.57333313 3.52000031-7.57333312 7.78666688 0.10666688 4.26666656 3.52000031 7.57333313 7.78666594 7.57333312zM332.90666656 750.50666656c4.26666656-0.10666688 7.57333313-3.52000031 7.57333313-7.78666687-0.10666688-4.26666656-3.52000031-7.57333313-7.78666594-7.57333313-4.26666656 0.10666688-7.57333313 3.52000031-7.57333406 7.78666688 0.10666688 4.26666656 3.62666625 7.68 7.78666687 7.57333312zM442.98666687 708.90666688c1.27999969 0.85333313 2.77333313 1.27999969 4.26666657 1.27999968 1.06666687 0 2.02666688-0.21333375 2.98666687-0.64000031 2.77333313-1.17333375 4.58666625-3.94666688 4.58666625-7.14666656-0.10666688-3.19999969-2.02666688-5.86666687-4.8-7.03999969-0.96-0.31999969-1.92-0.53333344-2.98666687-0.53333344h-0.74666625c-1.06666687 0.10666688-2.02666688 0.42666656-2.88 0.96-0.64000031 0.31999969-1.27999969 0.85333313-1.70666719 1.38666657-1.38666656 1.38666656-2.23999969 3.30666656-2.13333281 5.44000031 0 2.13333375 0.96 4.05333375 2.34666656 5.33333344 0.21333375 0.42666656 0.64000031 0.74666625 1.06666688 0.96zM371.62666625 772.80000031c-4.26666656 0.10666688-7.57333313 3.52000031-7.57333313 7.78666594 0.10666688 4.26666656 3.52000031 7.57333313 7.78666688 7.57333406 4.26666656-0.10666688 7.57333313-3.52000031 7.57333312-7.78666687s-3.52000031-7.57333313-7.78666687-7.57333313zM451.30666625 772.05333312c-0.96-0.31999969-1.92-0.53333344-2.98666594-0.53333343-1.60000031 0-3.09333375 0.53333344-4.26666656 1.38666656-0.42666656 0.31999969-0.74666625 0.64000031-1.06666687 0.96-1.38666656 1.38666656-2.23999969 3.30666656-2.13333375 5.44000031 0 2.13333375 0.96 4.05333375 2.34666656 5.33333344 0.31999969 0.31999969 0.74666625 0.64000031 1.17333375 0.96 1.27999969 0.85333313 2.77333313 1.27999969 4.26666656 1.27999969 1.06666687 0 2.02666688-0.21333375 2.98666688-0.63999938 2.77333313-1.17333375 4.58666625-3.94666688 4.58666625-7.14666656-0.10666688-3.19999969-2.13333375-5.86666687-4.90666688-7.04000062zM288.42666688 710.72c0.74666625 0.64000031 1.49333344 1.27999969 2.45333343 1.60000031 0.96 0.31999969 1.92 0.53333344 2.98666594 0.53333344 1.06666687 0 2.02666688-0.21333375 2.98666688-0.64000031 2.77333313-1.17333375 4.58666625-3.94666688 4.58666718-7.14666657-0.10666688-3.19999969-2.02666688-5.86666687-4.8-7.04000062-0.96-0.31999969-1.92-0.53333344-2.98666687-0.5333325-1.06666687 0-2.02666688 0.21333375-2.98666688 0.63999937-0.96 0.42666656-1.70666625 0.96-2.45333343 1.70666719-1.38666656 1.38666656-2.23999969 3.30666656-2.13333282 5.43999938 0 1.81333313 0.74666625 3.52000031 1.81333313 4.8 0.21333375 0.21333375 0.42666656 0.42666656 0.53333344 0.64000031zM298.02666687 774.72000031c-0.96-0.31999969-1.92-0.53333344-2.98666687-0.53333343-1.06666687 0-2.02666688 0.21333375-2.98666688 0.63999937-0.96 0.42666656-1.70666625 0.96-2.45333343 1.70666719-1.38666656 1.38666656-2.23999969 3.30666656-2.13333282 5.44000031 0 1.60000031 0.53333344 3.19999969 1.49333344 4.3733325 0.21333375 0.31999969 0.53333344 0.64000031 0.85333313 0.96 0.74666625 0.64000031 1.49333344 1.27999969 2.45333343 1.60000031 0.96 0.31999969 1.92 0.53333344 2.98666688 0.53333344 1.06666687 0 2.02666688-0.21333375 2.98666594-0.64000031 2.77333313-1.17333375 4.58666625-3.94666688 4.58666718-7.14666656-0.10666688-3.09333375-2.02666688-5.76-4.8-6.93333282zM521.28000031 555.41333375c4.26666656-0.10666688 7.57333313-3.52000031 7.57333313-7.78666687-0.10666688-4.26666656-3.52000031-7.57333313-7.78666688-7.57333313-4.26666656 0.10666688-7.57333313 3.62666625-7.57333312 7.78666594 0.10666688 4.37333344 3.52000031 7.68 7.78666687 7.57333406zM558.93333312 516.48000031c4.26666656-0.10666688 7.57333313-3.52000031 7.57333313-7.78666687-0.10666688-4.26666656-3.52000031-7.57333313-7.78666594-7.57333313-4.26666656 0.10666688-7.57333313 3.52000031-7.57333406 7.78666594 0.10666688 4.26666656 3.62666625 7.57333313 7.78666687 7.57333406zM560.31999969 593.17333344c4.26666656-0.10666688 7.57333313-3.52000031 7.57333406-7.78666688-0.10666688-4.26666656-3.52000031-7.57333313-7.78666688-7.57333312-4.26666656 0.10666688-7.57333313 3.52000031-7.57333312 7.78666687s3.52000031 7.57333313 7.78666594 7.57333313zM522.66666687 632.10666688c4.26666656-0.10666688 7.57333313-3.52000031 7.57333313-7.78666688-0.10666688-4.26666656-3.52000031-7.57333313-7.78666688-7.57333313-4.26666656 0.10666688-7.57333313 3.52000031-7.57333312 7.78666688s3.52000031 7.68 7.78666687 7.57333312zM369.27999969 634.77333313c4.26666656-0.10666688 7.57333313-3.52000031 7.57333406-7.78666688-0.10666688-4.26666656-3.52000031-7.57333313-7.78666688-7.57333312-4.26666656 0.10666688-7.57333313 3.52000031-7.57333312 7.78666687s3.52000031 7.68 7.78666594 7.57333313zM441.60000031 632.21333375c1.27999969 0.85333313 2.77333313 1.27999969 4.26666657 1.27999969 1.06666687 0 2.02666688-0.21333375 2.98666687-0.64000032 2.77333313-1.17333375 4.58666625-3.94666688 4.58666625-7.14666656-0.10666688-3.19999969-2.02666688-5.86666687-4.8-6.93333281-0.96-0.31999969-1.92-0.53333344-2.98666687-0.53333344-1.27999969 0-2.56000031 0.42666656-3.62666625 0.96-0.64000031 0.31999969-1.27999969 0.85333313-1.70666719 1.38666656-1.38666656 1.38666656-2.23999969 3.30666656-2.13333281 5.43999938 0 2.13333375 0.96 4.05333375 2.34666656 5.33333344 0.31999969 0.31999969 0.64000031 0.64000031 1.06666687 0.85333406zM289.59999969 635.62666625c0.96 0.31999969 1.92 0.53333344 2.98666687 0.53333344 1.06666687 0 2.02666688-0.21333375 2.98666688-0.63999938 2.77333313-1.17333375 4.58666625-3.94666688 4.58666625-7.14666656-0.10666688-3.19999969-2.02666688-5.86666687-4.8-6.93333375-0.96-0.31999969-1.92-0.53333344-2.98666594-0.53333344-1.06666687 0-2.02666688 0.21333375-2.98666688 0.64000032-0.96 0.42666656-1.70666625 0.96-2.45333343 1.70666625-1.38666656 1.38666656-2.23999969 3.30666656-2.13333375 5.44000031 0 2.13333375 0.96 4.05333375 2.34666656 5.33333344 0.64000031 0.64000031 1.49333344 1.17333375 2.45333344 1.59999937zM518.61333313 402.13333344c4.26666656-0.10666688 7.57333313-3.52000031 7.57333312-7.78666688-0.10666688-4.26666656-3.52000031-7.57333313-7.78666594-7.57333312-4.26666656 0.10666688-7.57333313 3.62666625-7.57333406 7.78666687 0.10666688 4.26666656 3.52000031 7.57333313 7.78666687 7.57333313zM557.65333344 439.78666625c4.26666656-0.10666688 7.57333313-3.52000031 7.57333312-7.78666594-0.10666688-4.26666656-3.52000031-7.57333313-7.78666687-7.57333406-4.26666656 0.10666688-7.57333313 3.52000031-7.57333313 7.78666687s3.52000031 7.68 7.78666688 7.57333313zM519.99999969 478.82666656c4.26666656-0.10666688 7.57333313-3.52000031 7.57333406-7.78666687-0.10666688-4.26666656-3.52000031-7.57333313-7.78666687-7.57333313-4.26666656 0.10666688-7.57333313 3.52000031-7.57333313 7.78666688s3.52000031 7.57333313 7.78666594 7.57333312zM794.02666625 803.84c-4.26666656 0.10666688-7.57333313 3.52000031-7.57333313 7.78666687 0.10666688 4.26666656 3.52000031 7.57333313 7.78666688 7.57333313 4.26666656-0.10666688 7.57333313-3.52000031 7.57333312-7.78666687s-3.52000031-7.68-7.78666687-7.57333313zM717.44 805.11999969c-4.26666656 0.10666688-7.57333313 3.52000031-7.57333313 7.78666687 0.10666688 4.26666656 3.52000031 7.57333313 7.78666688 7.57333313 4.26666656-0.10666688 7.57333313-3.52000031 7.57333312-7.78666594-0.10666688-4.26666656-3.62666625-7.57333313-7.78666687-7.57333406zM640.74666688 806.50666625c-4.26666656 0.10666688-7.57333313 3.52000031-7.57333313 7.78666687 0.10666688 4.26666656 3.52000031 7.57333313 7.78666594 7.57333313 4.26666656-0.10666688 7.57333313-3.52000031 7.57333406-7.78666594-0.10666688-4.26666656-3.62666625-7.68-7.78666687-7.57333406zM791.67999969 665.81333375c4.26666656-0.10666688 7.57333313-3.52000031 7.57333406-7.78666687-0.10666688-4.26666656-3.52000031-7.57333313-7.78666687-7.57333313-4.26666656 0.10666688-7.57333313 3.52000031-7.57333313 7.78666594s3.52000031 7.68 7.78666594 7.57333406zM792.96000031 742.50666687c4.26666656-0.10666688 7.57333313-3.52000031 7.57333313-7.78666687-0.10666688-4.26666656-3.52000031-7.57333313-7.78666688-7.57333313-4.26666656 0.10666688-7.57333313 3.52000031-7.57333312 7.78666688 0.10666688 4.26666656 3.62666625 7.68 7.78666687 7.57333312zM677.33333375 706.13333375c4.26666656-0.10666688 7.57333313-3.52000031 7.57333313-7.78666687-0.10666688-4.26666656-3.52000031-7.57333313-7.78666688-7.57333313-4.26666656 0.10666688-7.57333313 3.62666625-7.57333312 7.78666594 0 4.26666656 3.52000031 7.68 7.78666687 7.57333406zM714.98666656 667.20000031c4.26666656-0.10666688 7.57333313-3.52000031 7.57333313-7.78666687-0.10666688-4.26666656-3.52000031-7.57333313-7.78666594-7.57333313-4.26666656 0.10666688-7.57333313 3.52000031-7.57333406 7.78666594 0.10666688 4.26666656 3.52000031 7.57333313 7.78666687 7.57333406zM638.29333344 668.48c4.26666656-0.10666688 7.57333313-3.52000031 7.57333312-7.78666687-0.10666688-4.26666656-3.52000031-7.57333313-7.78666687-7.57333313-4.26666656 0.10666688-7.57333313 3.52000031-7.57333313 7.78666688 0.10666688 4.26666656 3.62666625 7.68 7.78666688 7.57333312zM716.37333312 743.78666656c4.26666656-0.10666688 7.57333313-3.52000031 7.57333313-7.78666687-0.10666688-4.26666656-3.52000031-7.57333313-7.78666594-7.57333313-4.26666656 0.10666688-7.57333313 3.52000031-7.57333406 7.78666688s3.52000031 7.68 7.78666687 7.57333312zM639.68 745.17333312c4.26666656-0.10666688 7.57333313-3.52000031 7.57333313-7.78666687-0.10666688-4.26666656-3.52000031-7.57333313-7.78666688-7.57333312-4.26666656 0.10666688-7.57333313 3.52000031-7.57333312 7.78666687s3.52000031 7.68 7.78666687 7.57333313zM751.04 704.21333375c0.96 0.31999969 1.92 0.53333344 2.98666688 0.5333325 3.19999969-0.10666688 5.86666687-2.02666688 6.93333281-4.8 0.31999969-0.96 0.53333344-1.92 0.53333343-2.98666594 0-1.06666687-0.21333375-2.02666688-0.63999937-2.98666687-1.17333375-2.77333313-3.94666688-4.58666625-7.1466675-4.58666719-1.06666687 0-2.02666688 0.21333375-2.98666594 0.64000031-1.81333313 0.85333313-3.30666656 2.34666656-4.05333375 4.15999969-0.31999969 0.96-0.53333344 1.92-0.53333343 2.98666688 0 1.06666687 0.21333375 2.02666688 0.64000031 2.98666687 0.85333313 1.92 2.34666656 3.41333344 4.26666656 4.05333375zM678.39999969 767.46666687c-4.26666656 0.10666688-7.57333313 3.52000031-7.57333313 7.78666688 0.10666688 4.26666656 3.52000031 7.57333313 7.78666688 7.57333312 4.26666656-0.10666688 7.57333313-3.52000031 7.57333312-7.78666687-0.10666688-4.26666656-3.52000031-7.57333313-7.78666687-7.57333313zM755.09333375 766.18666625c-1.06666687 0-2.02666688 0.21333375-2.98666688 0.64000031-1.81333313 0.85333313-3.30666656 2.34666656-4.05333374 4.15999969-0.31999969 0.96-0.53333344 1.92-0.53333344 2.98666688 0 1.06666687 0.21333375 2.02666688 0.64000031 2.98666687 0.85333313 1.81333313 2.34666656 3.30666656 4.15999969 4.05333375 0.96 0.31999969 1.92 0.53333344 2.98666687 0.5333325 3.19999969-0.10666688 5.86666687-2.02666688 6.93333375-4.8 0.31999969-0.96 0.53333344-1.92 0.53333344-2.98666594 0-1.06666687-0.21333375-2.02666688-0.64000031-2.98666687-1.17333375-2.77333313-3.84-4.69333313-7.03999969-4.58666719zM595.20000031 705.38666656c0.74666625 0.64000031 1.49333344 1.27999969 2.45333344 1.60000032s1.92 0.53333344 2.98666594 0.53333343c0.31999969 0 0.74666625 0 1.06666687-0.10666687 2.45333344-0.42666656 4.48000031-1.92 5.65333313-4.05333375 0.10666688-0.10666688 0.10666688-0.31999969 0.21333375-0.42666656 0-0.10666688 0.10666688-0.10666688 0.10666687-0.21333282 0.31999969-0.96 0.53333344-1.92 0.53333344-2.98666687 0-2.02666688-0.85333313-3.84-2.13333375-5.22666656l-0.31999969-0.32000063c-1.38666656-1.27999969-3.19999969-2.02666688-5.22666656-2.02666594-1.81333313 0-3.52000031 0.74666625-4.8 1.81333313-0.21333375 0.10666688-0.31999969 0.31999969-0.53333344 0.53333344-1.38666656 1.38666656-2.23999969 3.30666656-2.13333375 5.43999937 0 1.60000031 0.53333344 3.09333375 1.38666657 4.2666675 0.10666688 0.42666656 0.42666656 0.74666625 0.74666718 1.17333281zM818.88000031 465.92c0 2.13333375 0.85333313 3.94666688 2.23999969 5.33333344v-10.87999969c-1.38666656 1.38666656-2.23999969 3.30666656-2.23999969 5.54666625zM821.12 546.13333344v-7.36000032c-0.64000031 1.17333375-0.96 2.45333344-0.96 3.84 0.10666688 1.27999969 0.42666656 2.45333344 0.96 3.52000032zM789.01333344 512.42666656c4.26666656-0.10666688 7.57333313-3.52000031 7.57333312-7.78666687-0.10666688-4.26666656-3.52000031-7.57333313-7.78666687-7.57333313-4.26666656 0.10666688-7.57333313 3.52000031-7.57333313 7.78666688s3.52000031 7.68 7.78666688 7.57333312zM790.29333313 589.11999969c4.26666656-0.10666688 7.57333313-3.52000031 7.57333312-7.78666594-0.10666688-4.26666656-3.52000031-7.57333313-7.78666594-7.57333406-4.26666656 0.10666688-7.57333313 3.52000031-7.57333406 7.78666687 0.10666688 4.26666656 3.62666625 7.68 7.78666687 7.57333313zM674.66666656 552.74666656c4.26666656-0.10666688 7.57333313-3.52000031 7.57333313-7.78666687-0.10666688-4.26666656-3.52000031-7.57333313-7.78666594-7.57333313-4.26666656 0.10666688-7.57333313 3.62666625-7.57333406 7.78666688 0 4.26666656 3.52000031 7.68 7.78666687 7.57333312zM712.32000031 513.81333313c4.26666656-0.10666688 7.57333313-3.52000031 7.57333313-7.78666688-0.10666688-4.26666656-3.52000031-7.57333313-7.78666688-7.57333312-4.26666656 0.10666688-7.57333313 3.52000031-7.57333312 7.78666687 0.10666688 4.26666656 3.52000031 7.57333313 7.78666687 7.57333313zM635.62666625 515.09333375c4.26666656-0.10666688 7.57333313-3.52000031 7.57333406-7.78666687-0.10666688-4.26666656-3.52000031-7.57333313-7.78666687-7.57333313-4.26666656 0.10666688-7.57333313 3.52000031-7.57333313 7.78666594 0.10666688 4.26666656 3.52000031 7.68 7.78666594 7.57333406zM713.70666687 590.50666625c4.26666656-0.10666688 7.57333313-3.52000031 7.57333313-7.78666594-0.10666688-4.26666656-3.52000031-7.57333313-7.78666687-7.57333406-4.26666656 0.10666688-7.57333313 3.52000031-7.57333313 7.78666687s3.52000031 7.57333313 7.78666688 7.57333313zM637.01333375 591.78666687c4.26666656-0.10666688 7.57333313-3.52000031 7.57333313-7.78666687-0.10666688-4.26666656-3.52000031-7.57333313-7.78666688-7.57333313-4.26666656 0.10666688-7.57333313 3.52000031-7.57333312 7.78666688s3.52000031 7.68 7.78666687 7.57333312zM748.37333375 550.93333344c0.96 0.31999969 1.92 0.53333344 2.98666594 0.53333343 3.19999969-0.10666688 5.86666687-2.02666688 6.93333375-4.8 0.31999969-0.96 0.53333344-1.92 0.53333343-2.98666687 0-1.06666687-0.21333375-2.02666688-0.64000031-2.98666688-1.17333375-2.77333313-3.94666688-4.58666625-7.14666656-4.58666625-1.06666687 0-2.02666688 0.21333375-2.98666688 0.63999938-1.81333313 0.85333313-3.30666656 2.34666656-4.05333281 4.16000062-0.31999969 0.96-0.53333344 1.92-0.53333344 2.98666688 0 1.06666687 0.21333375 2.02666688 0.63999938 2.98666594 0.85333313 1.81333313 2.34666656 3.30666656 4.2666675 4.05333375zM675.94666625 629.43999969c4.26666656-0.10666688 7.57333313-3.52000031 7.57333406-7.78666594-0.10666688-4.26666656-3.52000031-7.57333313-7.78666687-7.57333406-4.26666656 0.10666688-7.57333313 3.52000031-7.57333313 7.78666687 0.10666688 4.26666656 3.62666625 7.68 7.78666594 7.57333313zM749.65333344 627.62666656c0.96 0.31999969 1.92 0.53333344 2.98666687 0.53333344 3.19999969-0.10666688 5.86666687-2.02666688 6.93333281-4.8 0.31999969-0.96 0.53333344-1.92 0.53333344-2.98666688 0-1.06666687-0.21333375-2.02666688-0.64000031-2.98666687-1.17333375-2.77333313-3.94666688-4.58666625-7.14666656-4.58666625-1.06666687 0-2.02666688 0.21333375-2.98666594 0.64000031-1.81333313 0.85333313-3.30666656 2.34666656-4.05333375 4.15999969-0.31999969 0.96-0.53333344 1.92-0.53333344 2.98666687 0 1.06666687 0.21333375 2.02666688 0.64000031 2.98666688 0.96 1.81333313 2.45333344 3.30666656 4.26666657 4.05333281zM593.06666656 552.42666688c0.21333375 0.10666688 0.42666656 0.31999969 0.64000031 0.42666656 1.27999969 0.85333313 2.77333313 1.27999969 4.26666657 1.27999969 0.31999969 0 0.74666625 0 1.06666687-0.10666688 2.23999969-0.31999969 4.26666656-1.70666625 5.33333344-3.62666625 0.74666625-1.17333375 1.17333375-2.56000031 1.06666594-4.15999969v-0.74666718c-0.21333375-1.70666625-0.96-3.30666656-2.13333282-4.47999938-1.17333375-1.27999969-2.88-2.13333375-4.69333312-2.24000062h-0.96c-1.27999969 0-2.56000031 0.42666656-3.62666719 0.96-0.21333375 0.10666688-0.42666656 0.21333375-0.64000031 0.42666656-0.64000031 0.42666656-1.17333375 0.96-1.59999938 1.49333344-1.06666687 1.38666656-1.70666625 3.09333375-1.70666718 4.90666687 0 1.06666687 0.21333375 2.02666688 0.64000031 2.98666688 0.64000031 1.17333375 1.38666656 2.13333375 2.34666656 2.88zM599.25333312 630.82666625c0.31999969 0 0.74666625 0 1.06666688-0.10666594 2.45333344-0.42666656 4.48000031-1.92 5.65333313-4.05333375 0.53333344-1.06666687 0.85333313-2.34666656 0.85333312-3.62666625 0-1.81333313-0.74666625-3.52000031-1.81333312-4.8-0.21333375-0.21333375-0.31999969-0.42666656-0.53333344-0.53333344-0.53333344-0.42666656-1.06666687-0.85333313-1.59999938-1.17333375-0.21333375-0.10666688-0.42666656-0.21333375-0.53333343-0.31999968-0.10666688 0-0.21333375-0.10666688-0.32000063-0.10666688l-0.96-0.31999969c-0.21333375 0-0.31999969-0.10666688-0.5333325-0.10666687-0.42666656-0.10666688-0.85333313-0.10666688-1.3866675-0.10666688-1.06666687 0-2.02666688 0.21333375-2.98666594 0.64000032-2.77333313 1.17333375-4.58666625 3.94666688-4.58666718 7.14666656 0 0.74666625 0.10666688 1.60000031 0.42666656 2.23999969 0.10666688 0.42666656 0.31999969 0.96 0.64000031 1.38666656 0.10666688 0.21333375 0.21333375 0.42666656 0.42666656 0.64000031 1.27999969 1.92 3.62666625 3.19999969 6.18666657 3.19999969zM817.49333375 389.22666687c0 2.66666625 1.49333344 5.01333375 3.62666625 6.39999938v-13.0133325c-2.13333375 1.38666656-3.62666625 3.84-3.62666625 6.61333312zM787.62666688 435.73333344c4.26666656-0.10666688 7.57333313-3.52000031 7.57333312-7.78666688-0.10666688-4.26666656-3.52000031-7.57333313-7.78666688-7.57333312-4.26666656 0.10666688-7.57333313 3.52000031-7.57333312 7.78666687 0.10666688 4.26666656 3.62666625 7.68 7.78666687 7.57333313zM672.00000031 399.46666625c4.26666656-0.10666688 7.57333313-3.52000031 7.57333313-7.78666594-0.10666688-4.26666656-3.52000031-7.57333313-7.78666688-7.57333406-4.26666656 0.10666688-7.57333313 3.62666625-7.57333312 7.78666687 0 4.26666656 3.52000031 7.57333313 7.78666687 7.57333313zM710.93333375 437.12c4.26666656-0.10666688 7.57333313-3.52000031 7.57333313-7.78666687-0.10666688-4.26666656-3.52000031-7.57333313-7.78666688-7.57333313-4.26666656 0.10666688-7.57333313 3.52000031-7.57333312 7.78666687 0.10666688 4.26666656 3.62666625 7.68 7.78666687 7.57333313zM634.34666656 438.39999969c4.26666656-0.10666688 7.57333313-3.52000031 7.57333313-7.78666594-0.10666688-4.26666656-3.52000031-7.57333313-7.78666594-7.57333406-4.26666656 0.10666688-7.57333313 3.52000031-7.57333406 7.78666687s3.52000031 7.68 7.78666687 7.57333313zM745.70666656 397.54666625c0.96 0.31999969 1.92 0.53333344 2.98666688 0.53333344 3.19999969-0.10666688 5.86666687-2.02666688 6.93333281-4.8 0.31999969-0.96 0.53333344-1.92 0.53333344-2.98666594 0-1.06666687-0.21333375-2.02666688-0.63999938-2.98666688-1.17333375-2.77333313-3.94666688-4.58666625-7.14666656-4.58666718-1.06666687 0-2.02666688 0.21333375-2.98666687 0.64000031-1.81333313 0.85333313-3.30666656 2.34666656-4.05333375 4.15999969-0.31999969 0.96-0.53333344 1.92-0.53333344 2.98666687 0 1.06666687 0.21333375 2.02666688 0.64000031 2.98666688 0.85333313 1.81333313 2.34666656 3.30666656 4.26666656 4.05333281zM673.28 476.16000031c4.26666656-0.10666688 7.57333313-3.52000031 7.57333313-7.78666687-0.10666688-4.26666656-3.52000031-7.57333313-7.78666688-7.57333313-4.26666656 0.10666688-7.57333313 3.52000031-7.57333312 7.78666594 0.10666688 4.26666656 3.62666625 7.57333313 7.78666687 7.57333406zM746.98666625 474.24000031c0.96 0.31999969 1.92 0.53333344 2.98666688 0.53333344 3.19999969-0.10666688 5.86666687-2.02666688 6.93333375-4.8 0.31999969-0.96 0.53333344-1.92 0.53333343-2.98666687 0-1.06666687-0.21333375-2.02666688-0.64000031-2.98666688-1.17333375-2.77333313-3.94666688-4.58666625-7.14666656-4.58666625-1.06666687 0-2.02666688 0.21333375-2.98666688 0.63999938-1.81333313 0.85333313-3.30666656 2.34666656-4.05333281 4.16000062-0.31999969 0.96-0.53333344 1.92-0.53333344 2.98666594 0 1.06666687 0.21333375 2.02666688 0.63999938 2.98666687 0.96 1.81333313 2.45333344 3.30666656 4.26666656 4.05333375zM595.30666625 400.74666688c0.74666625 0 1.38666656-0.10666688 2.13333375-0.32000063h0.21333375c1.17333375-0.42666656 2.23999969-1.06666687 3.09333281-1.92 1.38666656-1.38666656 2.23999969-3.30666656 2.13333375-5.43999938 0-1.70666625-0.64000031-3.30666656-1.60000031-4.58666718-1.27999969-1.60000031-3.09333375-2.77333313-5.22666656-2.98666594h-0.96c-1.27999969 0-2.56000031 0.42666656-3.62666719 0.96-0.21333375 0.10666688-0.42666656 0.21333375-0.63999938 0.42666656-0.64000031 0.42666656-1.17333375 0.96-1.60000031 1.49333344-1.06666687 1.38666656-1.70666625 3.09333375-1.70666625 4.90666594 0 0.74666625 0.10666688 1.60000031 0.42666656 2.24000062 0.10666688 0.42666656 0.31999969 0.96 0.63999938 1.38666656 0.10666688 0.21333375 0.21333375 0.42666656 0.4266675 0.63999938 1.27999969 1.92 3.62666625 3.30666656 6.2933325 3.20000062zM596.58666688 477.44c0.74666625 0 1.38666656-0.10666688 2.13333281-0.31999969H599.04000031c1.60000031-0.53333344 3.09333375-1.70666625 3.94666594-3.09333375 0.85333313-1.27999969 1.27999969-2.77333313 1.28000063-4.26666656 0-1.81333313-0.74666625-3.52000031-1.81333313-4.8-1.38666656-1.70666625-3.52000031-2.66666625-5.97333375-2.66666625-2.66666625 0-4.90666687 1.38666656-6.29333344 3.51999938-0.31999969 0.42666656-0.53333344 0.85333313-0.64000031 1.28000062-0.21333375 0.42666656-0.31999969 0.96-0.42666656 1.4933325-0.10666688 0.53333344-0.10666688 1.06666687-0.10666594 1.60000031 0 0.74666625 0.10666688 1.60000031 0.42666656 2.23999969 0.10666688 0.42666656 0.31999969 0.96 0.63999938 1.3866675 0.10666688 0.21333375 0.21333375 0.42666656 0.42666656 0.63999938 1.17333375 1.70666625 3.52000031 2.98666688 6.08000063 2.98666687z" fill="#231B3B" p-id="9658"></path><path d="M678.93333312 573.22666625H546.56c-17.70666656 0-31.99999969-14.29333313-31.99999969-31.99999969s14.29333313-31.99999969 31.99999969-31.99999969h132.37333312c17.70666656 0 31.99999969 14.29333313 32.00000063 31.99999969s-14.29333313 31.99999969-32.00000063 31.99999969zM678.93333312 457.28H546.56c-17.70666656 0-31.99999969-14.29333313-31.99999969-31.99999969s14.29333313-31.99999969 31.99999969-32.00000062h132.37333312c17.70666656 0 31.99999969 14.29333313 32.00000063 32.00000062s-14.29333313 31.99999969-32.00000063 31.99999969z" fill="#E2A61E" p-id="9659"></path><path d="M728.85333313 853.54666625H295.14666687c-68.47999969 0-124.26666656-55.78666688-124.26666656-124.26666656V295.57333344c0-68.47999969 55.78666688-124.26666656 124.26666657-124.26666656h433.81333312c68.47999969 0 124.26666656 55.78666688 124.26666656 124.26666656v433.81333312c-0.10666688 68.47999969-55.78666688 124.15999969-124.37333344 124.15999969zM295.14666687 235.30666625c-33.17333344 0-60.26666625 26.98666688-60.26666718 60.26666719v433.81333312c0 33.17333344 26.98666688 60.26666625 60.26666719 60.26666719h433.81333312c33.17333344 0 60.26666625-26.98666688 60.26666625-60.26666719V295.57333344c0-33.17333344-26.98666688-60.26666625-60.26666625-60.26666719H295.14666687z" fill="#592B0C" p-id="9660"></path><path d="M678.93333312 711.14666656H334.93333344c-17.70666656 0-31.99999969-14.29333313-31.99999969-31.99999968s14.29333313-31.99999969 31.99999969-32.00000063h344.10666656c17.70666656 0 31.99999969 14.29333313 31.99999969 32.00000062s-14.4 31.99999969-32.10666657 31.99999969z" fill="#E2A61E" p-id="9661"></path></svg>