<?xml version="1.0" standalone="no"?><!DOCTYPE svg PUBLIC "-//W3C//DTD SVG 1.1//EN" "http://www.w3.org/Graphics/SVG/1.1/DTD/svg11.dtd"><svg t="1701910953778" class="icon" viewBox="0 0 1024 1024" version="1.1" xmlns="http://www.w3.org/2000/svg" p-id="11134" width="48" height="48" xmlns:xlink="http://www.w3.org/1999/xlink"><path d="M894.8 98.2H131.2C112.8 98.2 98 113 98 131.4V895c0 18.4 14.8 33.2 33.2 33.2h763.6c18.4 0 33.2-14.8 33.2-33.2V131.4c0-18.3-14.8-33.2-33.2-33.2zM401 690.6v79.9c0 4.6-3.7 8.3-8.3 8.3h-49.8c-4.6 0-8.3-3.7-8.3-8.3v-79.9c-43.3-14.1-74.7-54.8-74.7-102.7 0-47.9 31.4-88.7 74.7-102.7V255.9c0-4.6 3.7-8.3 8.3-8.3h49.8c4.6 0 8.3 3.7 8.3 8.3v229.3c43.3 14.1 74.7 54.8 74.7 102.7 0 48-31.5 88.7-74.7 102.7z m290-149.3c0.2 0 0.3-0.1 0.4-0.1v229.3c0 4.6-3.7 8.3-8.3 8.3h-49.8c-4.6 0-8.3-3.7-8.3-8.3V541.2c0.2 0 0.3 0.1 0.4 0.1-43.6-13.9-75.1-54.7-75.1-102.8s31.5-88.9 75.1-102.8c-0.2 0-0.3 0.1-0.4 0.1v-79.9c0-4.6 3.7-8.3 8.3-8.3h49.8c4.6 0 8.3 3.7 8.3 8.3v79.9c-0.2 0-0.3-0.1-0.4-0.1 43.6 13.9 75.1 54.7 75.1 102.8s-31.5 88.9-75.1 102.8z m-70.1-102.8c0 20.6 16.7 37.3 37.3 37.3s37.3-16.7 37.3-37.3c0-20.6-16.7-37.3-37.3-37.3s-37.3 16.7-37.3 37.3zM400.3 569.8l-1.6-2.5c0-0.1-0.1-0.1-0.1-0.2l-0.9-1.2c-0.1-0.1-0.2-0.2-0.2-0.3-1-1.3-2.1-2.6-3.3-3.7l-0.2-0.2c-0.4-0.4-0.8-0.8-1.2-1.1-0.8-0.8-1.8-1.6-2.7-2.2h-0.1l-1.2-0.9c-0.1-0.1-0.3-0.2-0.4-0.3-1.2-0.8-2.6-1.7-4-2.3-0.2-0.1-0.5-0.2-0.7-0.4-0.4-0.2-0.7-0.3-1.1-0.5-0.3-0.1-0.7-0.3-1-0.4-0.5-0.2-1-0.4-1.6-0.5-0.4-0.1-0.9-0.3-1.3-0.4l-0.9-0.3c-0.5-0.1-0.9-0.2-1.5-0.3-0.2-0.1-0.5-0.1-0.7-0.2-0.7-0.1-1.5-0.3-2.2-0.4-0.2 0-0.4 0-0.6-0.1-0.6-0.1-1.1-0.1-1.8-0.2-0.2 0-0.4 0-0.7-0.1-0.8 0-1.6-0.1-2.4-0.1-0.8 0-1.6 0-2.4 0.1-0.2 0-0.4 0-0.7 0.1-0.6 0-1.2 0.1-1.8 0.2-0.2 0-0.4 0-0.6 0.1-0.7 0.1-1.5 0.2-2.2 0.4-0.2 0.1-0.5 0.1-0.7 0.2-0.5 0.1-0.9 0.2-1.5 0.3l-0.9 0.3c-0.4 0.1-0.9 0.3-1.3 0.4-0.5 0.2-1 0.4-1.6 0.5-0.3 0.1-0.7 0.3-1 0.4-0.4 0.2-0.7 0.3-1.1 0.5-0.2 0.1-0.5 0.2-0.7 0.4-1.3 0.7-2.7 1.5-4 2.3-0.1 0.1-0.3 0.2-0.4 0.3l-1.2 0.9h-0.1c-0.9 0.7-1.9 1.5-2.7 2.2-0.4 0.4-0.8 0.7-1.2 1.1l-0.2 0.2c-1.1 1.1-2.3 2.5-3.3 3.7-0.1 0.1-0.2 0.2-0.2 0.3l-0.9 1.2c0 0.1-0.1 0.1-0.1 0.2l-1.6 2.5c-0.1 0.2-0.2 0.3-0.3 0.5-2.8 5.3-4.5 11.3-4.5 17.6 0 6.3 1.7 12.4 4.5 17.6 0.1 0.2 0.2 0.3 0.3 0.5l1.6 2.5c0 0.1 0.1 0.1 0.1 0.2l0.9 1.2c0.1 0.1 0.2 0.2 0.2 0.3 1 1.3 2.1 2.6 3.3 3.7l0.2 0.2c0.4 0.4 0.8 0.8 1.2 1.1 0.8 0.8 1.8 1.6 2.7 2.2h0.1l1.2 0.9c0.1 0.1 0.3 0.2 0.4 0.3 1.2 0.8 2.6 1.7 4 2.3 0.2 0.1 0.5 0.2 0.7 0.4 0.4 0.2 0.7 0.3 1.1 0.5 0.3 0.1 0.7 0.3 1 0.4 0.5 0.2 1 0.4 1.6 0.5 0.4 0.1 0.9 0.3 1.3 0.4l0.9 0.3c0.5 0.1 0.9 0.2 1.5 0.3 0.2 0.1 0.5 0.1 0.7 0.2 0.7 0.1 1.5 0.3 2.2 0.4 0.2 0 0.4 0 0.6 0.1 0.6 0.1 1.1 0.1 1.8 0.2 0.2 0 0.4 0 0.7 0.1 0.8 0 1.6 0.1 2.4 0.1 0.8 0 1.6 0 2.4-0.1 0.2 0 0.4 0 0.7-0.1 0.6 0 1.2-0.1 1.8-0.2 0.2 0 0.4 0 0.6-0.1 0.7-0.1 1.5-0.2 2.2-0.4 0.2-0.1 0.5-0.1 0.7-0.2 0.5-0.1 0.9-0.2 1.5-0.3l0.9-0.3c0.4-0.1 0.9-0.3 1.3-0.4 0.5-0.2 1-0.4 1.6-0.5 0.3-0.1 0.7-0.3 1-0.4 0.4-0.2 0.7-0.3 1.1-0.5 0.2-0.1 0.5-0.2 0.7-0.4 1.3-0.7 2.7-1.5 4-2.3 0.1-0.1 0.3-0.2 0.4-0.3l1.2-0.9h0.1c0.9-0.7 1.9-1.5 2.7-2.2 0.4-0.4 0.8-0.7 1.2-1.1l0.2-0.2c1.1-1.1 2.3-2.5 3.3-3.7 0.1-0.1 0.2-0.2 0.2-0.3l0.9-1.2c0-0.1 0.1-0.1 0.1-0.2l1.6-2.5c0.1-0.2 0.2-0.3 0.3-0.5 2.8-5.3 4.5-11.3 4.5-17.6 0-6.3-1.7-12.4-4.5-17.6-0.1-0.2-0.2-0.4-0.3-0.5z" p-id="11135" fill="#00aaff"></path><path d="M845.6 548.9h8.8l2.1-3.7h-13l2.1 3.7z m13.6-10.9h-18.4c-0.6 0-1 0.7-0.7 1.2l2.5 4.3h14.9l2.5-4.3c0.2-0.5-0.2-1.2-0.8-1.2z m-13.3 17.2c0 0.4 0.4 0.8 0.8 0.8h6.6c0.4 0 0.8-0.4 0.8-0.8v-4.7h-8.2v4.7z" fill="#00aaff" p-id="11136"></path></svg>